<?xml version="1.0" encoding="UTF-8"?>
<!-- Generator: Adobe Illustrator 26.0.3, SVG Export Plug-In . SVG Version: 6.00 Build 0)  -->
<svg version="1.1" id="Layer_1" xmlns="http://www.w3.org/2000/svg" xmlns:xlink="http://www.w3.org/1999/xlink" x="0px" y="0px" viewBox="0 0 359 247" style="enable-background:new 0 0 359 247;" xml:space="preserve">
<style type="text/css">
	.st0{fill:#BFD9FF;}
	.st1{fill:#C9EBF7;}
	.st2{fill:#FFFFFF;}
	.st3{fill:#0066FF;}
	.st4{fill:#FFCCBC;}
	.st5{fill:none;stroke:#FFFFFF;stroke-width:3.6293;stroke-linecap:round;stroke-linejoin:round;stroke-miterlimit:10;}
	.st6{fill:none;stroke:#9BE0EF;stroke-width:3.6293;stroke-linecap:round;stroke-linejoin:round;stroke-miterlimit:10;}
	.st7{fill:#0B57C6;}
	.st8{fill:#EEA886;}
	.st9{fill:#181929;}
	.st10{fill:#22243B;}
	.st11{fill:#292C47;}
	.st12{fill:#CFBEB6;}
	.st13{fill:#3A3F47;}
	.st14{fill:#23263D;}
	.st15{fill:#FAA146;}
	.st16{fill:#D44040;}
	.st17{fill:#EDDAD3;}
	.st18{fill:#8F5C28;}
	.st19{fill:#A77860;}
</style>
<path class="st0" d="M234.8,58.2h-73c-3.3,0-5.9-2.7-5.9-5.9V16.1c0-3.3,2.7-5.9,5.9-5.9h73c3.3,0,5.9,2.7,5.9,5.9v36.2  C240.8,55.5,238.1,58.2,234.8,58.2z"/>
<path class="st1" d="M240,102.5h-83.2c-3.7,0-6.8-5.3-6.8-11.8V18.8c0-6.5,3-11.8,6.8-11.8H240c3.7,0,6.8,5.3,6.8,11.8v71.9  C246.8,97.2,243.7,102.5,240,102.5z"/>
<path class="st2" d="M198.7,54.7c12.1,0,21.9-9.7,21.9-21.6s-9.8-21.6-21.9-21.6c-12.1,0-21.9,9.7-21.9,21.6S186.6,54.7,198.7,54.7z  "/>
<path d="M203.8,31.9c2.9-2.9,2.9-7.6,0-10.5c-2.9-2.9-7.6-2.9-10.5,0c-2.9,2.9-2.9,7.6,0,10.5C196.3,34.7,201,34.7,203.8,31.9z"/>
<path class="st3" d="M211,45.5c-0.3-6.6-5.8-11.9-12.5-11.9s-12.2,5.3-12.5,11.9H211z"/>
<path class="st4" d="M202.6,35.5c0,2.2-1.8,4.1-4.1,4.1c-2.2,0-4.1-1.8-4.1-4.1c0-2.2,1.8-4.1,4.1-4.1  C200.7,31.4,202.6,33.2,202.6,35.5z"/>
<path class="st4" d="M206.9,28.4c0,0.9-0.7,1.7-1.7,1.7c-0.9,0-1.7-0.7-1.7-1.7c0-0.9,0.7-1.7,1.7-1.7  C206.2,26.7,206.9,27.5,206.9,28.4z"/>
<path class="st4" d="M193.1,28.4c0,0.9-0.7,1.7-1.7,1.7c-0.9,0-1.7-0.7-1.7-1.7c0-0.9,0.7-1.7,1.7-1.7  C192.3,26.7,193.1,27.5,193.1,28.4z"/>
<path class="st4" d="M200,34.8c3.5-0.8,5.7-4.4,4.9-7.9c-0.8-3.5-4.4-5.7-7.9-4.9c-3.5,0.8-5.7,4.4-4.9,7.9  C192.9,33.4,196.4,35.6,200,34.8z"/>
<path d="M205.4,26.1c-0.7,2.2-3.7,3.1-6.7,2.1c-3-1-4.8-3.6-4.1-5.7c0.7-2.2,3.7-3.1,6.7-2.1C204.3,21.4,206.1,24,205.4,26.1z"/>
<path class="st5" d="M185.3,60.6h23.5"/>
<path class="st5" d="M184,75h29.4"/>
<path class="st5" d="M181.4,67.8h9.8"/>
<path class="st5" d="M197.1,67.8h20.3"/>
<path class="st6" d="M190.5,81.5h15.3"/>
<path class="st7" d="M241,111.6c-3,0-5.9-0.9-8.4-2.5s-4.4-4-5.5-6.8c-1.1-2.7-1.4-5.8-0.9-8.7c0.6-2.9,2-5.6,4.1-7.7  c2.1-2.1,4.8-3.5,7.7-4.1c2.9-0.6,5.9-0.3,8.7,0.9c2.7,1.1,5.1,3.1,6.7,5.5c1.6,2.5,2.5,5.4,2.5,8.4c0,4-1.6,7.8-4.4,10.6  C248.8,110,244.9,111.6,241,111.6z M241,84.5c-2.4,0-4.7,0.7-6.7,2c-2,1.3-3.5,3.2-4.5,5.4c-0.9,2.2-1.2,4.7-0.7,7  c0.5,2.4,1.6,4.5,3.3,6.2c1.7,1.7,3.9,2.9,6.2,3.3c2.4,0.5,4.8,0.2,7-0.7c2.2-0.9,4.1-2.5,5.4-4.5c1.3-2,2-4.3,2-6.7  c0-3.2-1.3-6.3-3.6-8.6C247.3,85.7,244.2,84.5,241,84.5z"/>
<path class="st7" d="M240,102.5l-6.9-7l2.1-2.1l4.8,4.9l6.7-6.9l2.1,2.1L240,102.5z"/>
<path class="st8" d="M163.6,70.3c0,0-0.1-1.6,0.1-2.3c0.3-1.3-0.1-3.3,1.4-4.3c1.6-1,6.1,3.1,6.5,4.3c0.4,1.1-1.3,3.1-4.9,4.8  C163.1,74.4,163.6,70.3,163.6,70.3z"/>
<path class="st8" d="M164.6,64.1c1.1-1.6,2.3-3.2,3.5-4.7c1.8-2.1,4.3-4.4,4.8-3.9c0.8,0.7-1.5,2.3-3.1,4.5c-1.5,2-0.9,1.9-0.9,1.9  s-0.2,0,1.9-1.8c2.2-2,4.7-4,5.1-3.7c0.5,0.4,0.6,0.5-0.1,1.4c0.5-0.4,0.7-0.3,0.9-0.1c1,1-1.8,4.4-2.9,5.8c0.9-1,1.6-1.7,1.8-0.7  c0.2,1.1-3.9,5.8-5.2,7.6C168.9,72.3,164.6,64.1,164.6,64.1z"/>
<path class="st9" d="M111.6,229.4c0,0,4.3,2.6,6.3,3.5c2,0.9,9.5,1.2,10.3,1.9c0.8,0.7,0.5,3-0.8,3.2c-1.3,0.2-10.5,1.1-13.6,0.3  c-3.1-0.7-8.8,0.5-10.1,0.1c-1.3-0.4-0.5-7.3,0-8.8C104.2,228.1,111.6,229.4,111.6,229.4z"/>
<path class="st10" d="M111.9,226.6l-0.4,2.8c0,0-5.8,1.1-7.5,0.2l0.4-2.9L111.9,226.6z"/>
<path class="st11" d="M135,130.7c-0.1,1.9-0.4,6.2-0.8,10.6c-0.1,1-0.2,2-0.3,3c-0.6,6-1.2,11.5-1.2,11.5c-0.7,4.7-2.2,13-3.9,19.2  c-0.5,1.8-1,3.4-1.5,4.8c-0.5,1.3-1,2.3-1.4,2.9c-3.6,4.6-11.8,45-11.8,45l-11.2-0.1c0,0,2.5-27.4,4.9-34.3  c2.8-7.8,7.5-18.2,6.4-25.7c-0.7-4.7-1.7-19.6-1.7-19.6s-0.9-16.8,3.5-29.1C117.1,115.7,135,130.7,135,130.7z"/>
<path class="st9" d="M143,230.5c0,0,4.3,2.6,6.2,3.6c1.9,1,9.5,1.3,10.3,2.1c0.7,0.7,0.4,3-0.8,3.2c-1.3,0.2-10.5,0.9-13.6,0.2  c-3.1-0.8-8.8,0.4-10.1-0.1c-1.3-0.5-0.4-7.3,0.1-8.8C135.6,229,143,230.5,143,230.5z"/>
<path class="st10" d="M143.4,227.7l-0.4,2.8c0,0-5.8,1-7.5,0.1l0.5-2.9L143.4,227.7z"/>
<path class="st11" d="M130,187.5c-0.3-8.9-1.1-14.9-3.4-20.1c-1.9-4.3-3.6-18-3.6-18s-5.2-16-4.2-29c0.3-3.3,20.5,4.9,20.5,4.9  c0.4,1.9,1.8,7.9,2.3,12.3c2.8,25.3,1.7,41.7,1.7,41.7c-1.6,5.6,2.4,49.5,2.4,49.5h-11.4c0,0-3-15.6-3.3-25.3  C131.1,203.6,129.9,189.1,130,187.5z"/>
<path class="st12" d="M129.8,71.8c0,0,5.3,8.7,6.9,13.6c1.6,4.9,0.3,19,0.6,21.8c0.8,8.8,2.1,18.5,2.1,18.5l-17.8,11.4  c-2.3-5.5-4.3-11.1-6-16.8c-2.8-9.3-3-17.7-3-23.3c0.1-17.5,9.6-27.4,9.6-27.4L129.8,71.8z"/>
<path class="st8" d="M136.3,48.4c0,0,3.7,3.9,2.6,4.9c-0.9,0.8,2.5,4.7,3,5.4c0.5,0.7-1.5,1.7-1.8,2.3c-0.3,0.6-0.1,6.7-1.8,7.3  s-10.2,0-12.9-1.7c-2.7-1.7-7.1-11.2-6.8-15.8C118.9,46.4,129.9,41.6,136.3,48.4z"/>
<path class="st8" d="M132.9,67.1c0,0-0.1,0.5-0.1,1.3c0,0.3-0.1,0.7-0.1,1.1c0,0.2,0,0.5-0.1,0.8c0,0.1,0,0.1,0,0.2  c0,0.1,0,0.2,0,0.4c0,0.6-0.1,1.2-0.1,1.8c-0.1,1.6-0.1,3,0.1,3.9c0.4,2.3-9.3-7.3-9.3-7.3c0.5-5.2,0.7-10.5,0.4-15.8  C123.1,45.2,132.9,67.1,132.9,67.1z"/>
<path class="st13" d="M137.1,49.3c0,0,1.7-4.1-3.6-6.9c-6.3-3.3-12.9,5-13.8,5.5c-0.9,0.5-4.9,5-1,11c4.9,7.5,4.7,7.3,4.7,7.3  s0.5-5.6,0.5-6.6c-0.1-2,5.1-2.2,5.1-2.2s-2.1-2.8,0.2-4.1C131.5,52,134.3,49,137.1,49.3z"/>
<path class="st8" d="M126.2,56.6c-0.4-0.5-1.8-2.9-3.5-0.8c-1.8,2,3,5.9,3.4,5.8C126.5,61.6,129.4,61.1,126.2,56.6z"/>
<path class="st14" d="M140.3,129.4c0,0-0.9-4.2-1.1-4.8l-26,4.3l0.3,3.4C113.4,132.3,132.2,131.2,140.3,129.4z"/>
<path class="st15" d="M110.9,111.1c0,0,4,17.3-2.3,37.4c-0.8,2.5,17.3-0.4,17.3-0.4L110.9,111.1z"/>
<path class="st15" d="M133.9,146.9c0,0-12.9,2.8-16.5,1.5c0,0-5.3-19.1-7.1-38.5c-0.1-1.5-0.3-3-0.4-4.5c-1-15.8,3-31.8,12.2-35.8  c0.3,0.2,13.2,11.5,12.9,21.9c0,0.7,0,1.4,0,2.1c0,1.3,0,2.6,0,3.8c0.1,4,0.3,7.9,0.7,11.7c0,0.4,0.1,0.8,0.1,1.2  c0.1,0.6,0.1,1.3,0.2,1.9c0.1,0.8,0.2,1.7,0.3,2.5C138.3,132.3,133.9,146.9,133.9,146.9z"/>
<path class="st16" d="M133.3,79.4c1.7,7.1,2.8,14.4,3.3,21.7c0.8,10.1,1.8,17.2,1.8,17.2l1.5,5l0.6-4.8c0,0-0.6-13-1.3-18.3  c-0.8-5.3-1.1-12.1-5.4-20.9L133.3,79.4z"/>
<path class="st16" d="M133.1,79.4c0.2,0.2,0.4,0.3,0.7,0.3c0.4,0.1,1-0.6-1.1-3.4L133.1,79.4z"/>
<path class="st17" d="M123.2,68.2c0,0,6,5.6,9.6,6.9l0.7,5.4l-11.4-10.8L123.2,68.2z"/>
<path class="st15" d="M127.2,90c-2.4-0.8-12.2-5.6-9.6-11.2c2.6-5.6,9.3-2.6,14.4-0.3c5.3,2.4,17.8,9.6,18.8,9  c1-0.7,5.3-6.9,6.1-8.3c0.8-1.4,5.5-10.2,5.9-10.9c0.4-0.7,7.3,5.1,7.3,5.1s-12.3,21.9-15.6,25.4C151.3,102.3,127.2,90,127.2,90z"/>
<path class="st9" d="M128.9,174.9c-0.5,1.8-1,3.4-1.5,4.8l-3.9-23.3C124.5,158.6,128.9,174.9,128.9,174.9z"/>
<path class="st18" d="M135,97.5l-11.3-9.2c3,1.6,10.3,5,11.3,5.4C135,95,135,96.2,135,97.5z"/>
<path class="st19" d="M132.7,68.4c0,0.3-0.1,0.7-0.1,1.1c0,0.2,0,0.5-0.1,0.8c-3.7-0.2-6.6-3.2-6.8-3.4  C127.2,68.2,132.7,68.4,132.7,68.4z"/>
</svg>