<?xml version="1.0" encoding="UTF-8"?>
<!-- Generator: Adobe Illustrator 26.0.3, SVG Export Plug-In . SVG Version: 6.00 Build 0)  -->
<svg version="1.1" id="Layer_1" xmlns="http://www.w3.org/2000/svg" xmlns:xlink="http://www.w3.org/1999/xlink" x="0px" y="0px" viewBox="0 0 362 247" style="enable-background:new 0 0 362 247;" xml:space="preserve">
<style type="text/css">
	.st0{fill:#444145;}
	.st1{fill:#FFFFFF;}
	.st2{fill:#BFC5EB;}
	.st3{fill:#A4ACE3;}
	.st4{opacity:0.2;}
	.st5{fill:#FFF6F3;}
	.st6{fill:#EEA886;}
	.st7{fill:#353A3D;}
	.st8{fill:#81807E;}
	.st9{fill:#2D3133;}
	.st10{fill:#DECBC4;}
	.st11{fill:#495055;}
	.st12{fill:#A77860;}
	.st13{fill:#252E3B;}
	.st14{fill:#3C4145;}
	.st15{fill:#51565C;}
	.st16{fill:#F5E2D9;}
	.st17{fill:#FAA146;}
	.st18{fill:#AD9F99;}
	.st19{fill:#69737A;}
	.st20{fill:url(#SVGID_1_);}
	.st21{fill:url(#SVGID_00000155850663679587779230000002204824695432384186_);}
	.st22{fill:#F2AC57;}
	.st23{fill:#B30200;}
</style>
<path class="st0" d="M278,27h-76.2c-1.2,0-2.4,0.2-3.5,0.7c-1.1,0.5-2.1,1.1-2.9,1.9c-0.8,0.8-1.5,1.8-2,2.9  c-0.5,1.1-0.7,2.3-0.7,3.4v157.3c0,2.4,0.9,4.7,2.6,6.4c1.7,1.7,4,2.6,6.4,2.6H278c2.4,0,4.7-0.9,6.4-2.6c1.7-1.7,2.6-4,2.6-6.4V36  c0-2.4-1-4.7-2.6-6.4C282.7,27.9,280.4,27,278,27z"/>
<path class="st1" d="M284.6,36v157.3c0,1.7-0.7,3.4-1.9,4.7c-1.2,1.2-2.9,1.9-4.7,1.9h-76.2c-1.8,0-3.4-0.7-4.7-1.9  c-1.2-1.2-1.9-2.9-1.9-4.7V36c0-1.7,0.7-3.4,1.9-4.7c1.2-1.2,2.9-1.9,4.7-1.9H278c1.8,0,3.4,0.7,4.7,1.9  C283.9,32.6,284.6,34.2,284.6,36z"/>
<path class="st0" d="M262.2,34.6h-44.6c-1.4,0-2.7-0.5-3.7-1.5c-1-1-1.5-2.3-1.5-3.7h55c0,1.4-0.6,2.7-1.5,3.7  C264.9,34,263.5,34.6,262.2,34.6z"/>
<path class="st2" d="M273.4,41.9h-67c-3.2,0-5.9,2.6-5.9,5.8v138.6c0,3.2,2.6,5.8,5.9,5.8h67c3.2,0,5.9-2.6,5.9-5.8V47.8  C279.3,44.6,276.6,41.9,273.4,41.9z"/>
<path class="st1" d="M265.8,74.2c0,5.1-1.5,10.1-4.4,14.3c-2.8,4.2-6.9,7.6-11.6,9.5c-4.7,2-9.9,2.5-15,1.5c-5-1-9.6-3.5-13.3-7.1  c-3.6-3.6-6.1-8.2-7.1-13.2c-1-5-0.5-10.2,1.5-14.9c2-4.7,5.3-8.7,9.5-11.6c4.3-2.8,9.3-4.4,14.4-4.4c3.4,0,6.8,0.6,9.9,1.9  c3.2,1.3,6,3.2,8.4,5.6c2.4,2.4,4.3,5.3,5.6,8.4S265.8,70.8,265.8,74.2z"/>
<path class="st3" d="M250.2,66.8c1.4-5.7-2.2-11.3-7.8-12.7c-5.7-1.4-11.4,2.1-12.8,7.8c-1.4,5.7,2.2,11.3,7.8,12.7  C243.1,75.9,248.8,72.4,250.2,66.8z"/>
<path class="st3" d="M260,87.9c-0.1,0.1-0.2,0.3-0.3,0.4c-2.2,3.2-5.2,5.7-8.7,7.5c-3.5,1.8-7.3,2.7-11.2,2.7  c-3.9,0-7.7-0.9-11.2-2.7c-3.5-1.8-6.4-4.4-8.7-7.5l-0.3-0.4c2.4-3,5.5-5.4,9-7.1s7.3-2.5,11.2-2.5c3.9,0,7.7,0.9,11.2,2.5  S257.6,84.9,260,87.9L260,87.9z"/>
<path class="st1" d="M270.2,106.2h-60.6c-1.3,0-2.4,1.1-2.4,2.4v12c0,1.3,1.1,2.4,2.4,2.4h60.6c1.3,0,2.4-1.1,2.4-2.4v-12  C272.6,107.3,271.5,106.2,270.2,106.2z"/>
<g class="st4">
	<g class="st4">
		<path class="st5" d="M241.3,113.2l-3.2,5.3l0,0l-1.1,0.6l0.5-3.1l-2.3-2.2l3.2-0.5l1.4-2.9L241.3,113.2z"/>
	</g>
</g>
<path class="st1" d="M269.7,129h-59.7c-1.6,0-2.9,1.3-2.9,2.9V181c0,1.6,1.3,2.9,2.9,2.9h59.7c1.6,0,2.9-1.3,2.9-2.9v-49.1  C272.6,130.3,271.3,129,269.7,129z"/>
<path class="st2" d="M221.7,177.9c4.7,0,8.5-3.8,8.5-8.5c0-4.7-3.8-8.5-8.5-8.5c-4.7,0-8.5,3.8-8.5,8.5  C213.2,174.1,217,177.9,221.7,177.9z"/>
<path class="st2" d="M267.8,170.1h-32.6c-0.2,0-0.4-0.1-0.5-0.2c-0.1-0.1-0.2-0.3-0.2-0.5c0-0.2,0.1-0.4,0.2-0.5  c0.1-0.1,0.3-0.2,0.5-0.2h32.6c0.2,0,0.4,0.1,0.5,0.2c0.1,0.1,0.2,0.3,0.2,0.5c0,0.2-0.1,0.4-0.2,0.5  C268.1,170,268,170.1,267.8,170.1z"/>
<path class="st2" d="M267.8,177.4h-32.6c-0.2,0-0.4-0.1-0.5-0.2c-0.1-0.1-0.2-0.3-0.2-0.5c0-0.2,0.1-0.4,0.2-0.5  c0.1-0.1,0.3-0.2,0.5-0.2h32.6c0.2,0,0.4,0.1,0.5,0.2c0.1,0.1,0.2,0.3,0.2,0.5c0,0.2-0.1,0.4-0.2,0.5  C268.1,177.3,268,177.4,267.8,177.4z"/>
<path class="st2" d="M267.8,162.8h-32.6c-0.2,0-0.4-0.1-0.5-0.2c-0.1-0.1-0.2-0.3-0.2-0.5c0-0.2,0.1-0.4,0.2-0.5  c0.1-0.1,0.3-0.2,0.5-0.2h32.6c0.2,0,0.4,0.1,0.5,0.2c0.1,0.1,0.2,0.3,0.2,0.5c0,0.2-0.1,0.4-0.2,0.5  C268.1,162.7,268,162.8,267.8,162.8z"/>
<path class="st2" d="M221.7,152c4.7,0,8.5-3.8,8.5-8.5c0-4.7-3.8-8.5-8.5-8.5c-4.7,0-8.5,3.8-8.5,8.5C213.2,148.2,217,152,221.7,152  z"/>
<path class="st2" d="M267.8,144.2h-32.6c-0.2,0-0.4-0.1-0.5-0.2c-0.1-0.1-0.2-0.3-0.2-0.5c0-0.2,0.1-0.4,0.2-0.5  c0.1-0.1,0.3-0.2,0.5-0.2h32.6c0.2,0,0.4,0.1,0.5,0.2c0.1,0.1,0.2,0.3,0.2,0.5c0,0.2-0.1,0.4-0.2,0.5  C268.1,144.1,268,144.2,267.8,144.2z"/>
<path class="st2" d="M267.8,151.5h-32.6c-0.2,0-0.4-0.1-0.5-0.2c-0.1-0.1-0.2-0.3-0.2-0.5c0-0.2,0.1-0.4,0.2-0.5  c0.1-0.1,0.3-0.2,0.5-0.2h32.6c0.2,0,0.4,0.1,0.5,0.2c0.1,0.1,0.2,0.3,0.2,0.5c0,0.2-0.1,0.4-0.2,0.5  C268.1,151.4,268,151.5,267.8,151.5z"/>
<path class="st2" d="M267.8,136.9h-32.6c-0.2,0-0.4-0.1-0.5-0.2c-0.1-0.1-0.2-0.3-0.2-0.5s0.1-0.4,0.2-0.5c0.1-0.1,0.3-0.2,0.5-0.2  h32.6c0.2,0,0.4,0.1,0.5,0.2c0.1,0.1,0.2,0.3,0.2,0.5s-0.1,0.4-0.2,0.5C268.1,136.8,268,136.9,267.8,136.9z"/>
<path class="st6" d="M150,125c0,0,2,0,2.7-0.8c0.7-0.7,1.5-1.2,2.4-1.6c0.5-0.3,2-1.7,2.2-1c0.2,0.7-2.4,2.5-2.8,3  c-0.5,0.5,2.1,0.7,2.5,1.2c0.4,0.5-0.9,5.3-2.7,5c-1.7-0.4-3.1-2.1-3.5-2.1c-0.4,0-0.9-0.1-1.3-0.2L150,125z"/>
<path class="st6" d="M156.5,125.5c0,0,5.2,1.6,5.4,2c0.2,0.4,0.1,0.8-0.4,0.6c-0.5-0.1-5.1-1.3-5.1-1.3s5.6,3.1,5.9,3.4  c0.2,0.2-0.1,0.8-0.4,0.8c-0.3,0-6.1-2.7-6.1-2.7s5.3,2.9,5.4,3.2c0.1,0.3-0.2,0.9-0.6,0.7c-0.4-0.2-5.5-2.5-5.5-2.5  s3.7,2.4,3.6,2.8c0,0.2-0.2,0.8-1.2,0.2c-0.9-0.7-3.3-1.9-3.3-1.9L156.5,125.5z"/>
<path class="st7" d="M139.1,211.9c0,0,1.7,2.5,4,3c2.3,0.5,4.6,1.4,4.6,2.8c0,1.5-6.7,2.3-9.4,0.9c-4-2.2-4.4-1.5-4.8-2.6  c-0.4-1.1,0.5-4,0.5-4.4C134,211.1,139.1,211.9,139.1,211.9z"/>
<path class="st8" d="M138.9,210.7c0.1,0.4,0.2,0.8,0.3,1.2c0,0-5.2,0.6-5.1-0.3c0.1-0.8,0.3-1.6,0.3-1.6L138.9,210.7z"/>
<path class="st7" d="M106.5,211.7c0,0,1.2,2.4,3.2,3.2c2.2,0.9,3.9,1.8,3.9,3.3c0,1.4-5.3,2.9-9.1,0.1c-2.4-1.7-3.2-1.7-3.6-2.8  c-0.4-1.1,0.7-3.9,0.7-4.3C101.5,210.8,106.5,211.7,106.5,211.7z"/>
<path class="st8" d="M106.5,210.5c0,0.4,0,0.8-0.1,1.2c0,0-5.1,0.4-4.9-0.5c0.1-0.6,0.3-1.1,0.5-1.6L106.5,210.5z"/>
<path class="st9" d="M125,138.3c0,0,6.6,25.2,9.1,31c2.3,5.4,3.1,12.9,3.4,16.7c0.4,4.8,2.8,23.3,3.1,24.7c0.3,1.4-7.8,0.8-7.8,0.8  s-5.5-32.1-7.9-36.8c-1.5-3.1-10.4-25.5-11.5-24.2c-1,1.3-2.3,23.7-3,27.5c-0.8,3.7-3.1,33.2-3.1,33.2s-5.2,0.8-6.6-0.4  c0,0-0.6-25.1-0.2-32.1c0.2-2.7-3.1-31.9,1.1-43.7C104,128.7,125,138.3,125,138.3z"/>
<path class="st10" d="M88.2,120.2c0,0.3,0.5,1.5,1.4,3.1c1.3-2.5,2.3-4.6,2.6-5.4c1.1-2.5,6.6-8.3,6.6-8.3s0,0,0,0v0c0,0,0,0,0,0  s0,0,0,0c0.3,1.1,2.1,8.1,2.2,11.5c0.1,3.7,1.1,10.7,1.1,10.7l1.2,0.2l2.6,0.4l0.3,0l0.7,0.1l6.8,1l2.4,0.3l0.3,0l1.4,0.2l3.8,0.5  l1,0.1l0.7,0.1l1,0.1c0,0,1-1.3,0.8-4.2c-0.1-1.9-0.3-5.3-0.2-8.6c0,0,0,0,0-0.1v-0.1c0,0,0,0,0,0c0-1.6,0.2-3.2,0.5-4.7  c0.2-0.8,0.4-1.7,0.5-2.5v-0.1l0-0.4c0.1-1.3,0.1-2.7,0-4c0.1,0.1,0.6,1.9,1.2,4.2c1.1,3.8,2.6,8.8,3.3,9c1,0.3,16.4,4.9,19.7,5.3  c0.4,0.1,0.6,0.1,0.6,0c0-0.1,0-0.1,0-0.2c0.4-1.3,1-3.6,1-3.9v-0.1l-0.6-0.2l-16.7-5l-7.7-22c-0.2-0.1-2-1-3.4-1.7  c-1.4-0.7-3.1-1.6-4.6-2.5c-0.8-0.4-1.5-0.8-2.2-1.1l-0.1,0l-1.8-0.8l-0.5,0c-1.5-0.1-6-0.6-7.6-0.7h-0.3h-0.2  c-0.8,0.2-1.6,0.5-2.4,0.8l-0.1,0.1l-0.2,0.1l-0.3,0.1l-0.7,0.3l-0.2,0.1c-2.5,1-5.3,2.2-6,2.7c-0.4,0.3-1.8,2.9-3.4,6.1  c-2.1,6.6-4.7,16.7-4.8,19.2C88.2,120.2,88.2,120.2,88.2,120.2z"/>
<path class="st11" d="M124.3,135.1c0,0,0.5,0.6,0.7,3.2c0,0-21-2.4-23.2-3.4c0,0-0.1-2.8,0.4-2.9  C102.6,131.9,124.3,135.1,124.3,135.1z"/>
<path class="st6" d="M106.4,89.9c0.1,3.3,6.4,5.1,6.4,5.1s2.7-3.3,2-3.6c-0.2-0.1-0.4-0.6-0.4-1.2c0-0.5,0-1,0-1.5  c0-0.2,0-0.4,0-0.4s-0.9-1-2.1-2.1c-2-2-4.8-4.5-4.8-3.5c0,0.1,0,0.1,0,0.2C108.2,85.2,106.4,89.9,106.4,89.9z"/>
<path class="st7" d="M107,132.5c0,0-0.5,2.9-0.5,3.6l-1-0.2c0,0,0.3-3,0.4-3.6L107,132.5z"/>
<path class="st7" d="M122.6,134.8c0,0,0.4,2.6,0.4,3.6l-1-0.1c0,0-0.2-3.3-0.3-3.6L122.6,134.8z"/>
<path class="st12" d="M108.9,85.1c0,0,0.3,0.4,0.7,1c1,1.2,2.8,3.2,4.9,4.1c0-0.5,0-1,0-1.5c0.2,0,0.4,0,0.6-0.1  c-0.4-0.7-0.9-1.4-1.4-2l-1.3-0.4L108.9,85.1z"/>
<path class="st6" d="M107.7,82.7c0.6,1.2,1.1,2.1,1.2,2.4c0.2,0.4,0.4,0.7,0.7,1c1,1.1,3,2.6,4.9,2.6c0.2,0,0.4,0,0.6-0.1  c0.5-0.1,0.9-0.2,1.3-0.5c0.4-0.3,0.7-0.6,0.9-1c4-7.8,1.1-14.1,1.1-14.1s-10.9-3.1-12.6,0.2C104.7,75.5,106.4,79.9,107.7,82.7z"/>
<path class="st13" d="M118.5,73c0,0,1-0.1,1.3-1.9c0.2-1.9-0.2-2.4-0.2-2.4s-4.5-1.9-6.1-2.1c-1.6-0.2-5.6-0.5-6.5,0.6  c0,0-2.3-0.5-2.9,3.2c-1,5.9,3.3,11.7,3.3,11.7s0-3.9,0.8-4.4c0.9-0.5,1.6,0.7,1.6,0.7l1.8,0.3c0,0-2.7-5.7,0.5-5.9  C115.2,72.5,116.6,73.3,118.5,73z"/>
<path class="st6" d="M109.7,76.8c-0.2-1.7-3.3-2.4-3.1-0.6c0.2,1.8,1.7,3.5,2.4,3.4C109.8,79.6,109.8,78.1,109.7,76.8z"/>
<path class="st14" d="M89.6,123.3c1.3,2.6,3.5,6.3,5.6,10c-0.3,0.5-0.5,1-0.8,1.5c-0.6,1.1-1.1,2.3-1.6,3.5  c-0.5,1.3-1.1,4.8,0.1,5.4l6.7,3.7l0.1-0.4c0.2-0.6,0.7-1.9,1.4-3.5c0-0.1,0.1-0.2,0.2-0.4c0.1-0.3,0.3-0.8,0.5-1.3l0.3-0.7l0.4-0.9  c0.2-0.4,0.4-0.8,0.5-1.2c0.5-1.1,0.8-1.9,0.8-1.9s0-0.1,0.1-0.1c0.2-0.5,0.4-0.9,0.7-1.4c0.4-0.7,0.7-1.5,1.1-2.2  c0-0.1,0.1-0.1,0.1-0.2l0.2-0.4l0.1-0.2l0,0l0-0.1c2-3.5,4.1-6.5,4.8-10.8l0.2-1.2c0.1-0.7,0.2-1.4,0.3-2c0-0.3,0.1-0.5,0.1-0.7  c0.4-2.9,0.6-5.5,0.7-7.2c0.5-5.6-2.9-11.6-5.5-15.3c-0.9-1.2-1.8-2.4-2.8-3.6l-0.1,0.1l-0.2,0.1l-0.3,0.1l-0.7,0.3l-0.2,0.1  c-2.5,1-7.9,2.5-8.6,2.9c-0.4,0.3-1.3,2.8-2.3,6c-2.1,6.6-3.3,16.6-3.4,19.1c0,0,0,0.1,0,0.1C88.2,120.5,88.8,121.7,89.6,123.3z   M99.8,122.1c-0.1,1.4-0.4,2.9-1,4.2l0,0.1c-0.4-0.9-0.8-1.8-1.2-2.6c-1-2.2-1.7-4-1.7-4.6c-0.2-4.4,3-9.5,3-9.5s0,0,0,0v0  c0,0,0,0,0,0s0,0,0,0C99.6,112.4,99.8,122.1,99.8,122.1z"/>
<path class="st14" d="M116.7,92.2c0,0,0.9,3,2.1,10.4c0,0.2,0.1,0.5,0.1,0.8v0.1c0,0.2,0.1,0.3,0.1,0.5v0.1c0,0.1,0,0.2,0.1,0.4  c0,0.3,0.1,0.6,0.1,0.9c0.5,3.6,1.2,9.8,2,16c0.6,4.9,1.8,9.9,2.2,13.7c0.1,0.9,0.3,1.9,0.5,2.8l0.1,0.4c1.1,4.7,3.3,11.4,3.3,11.4  l0.6-0.6l1.9-1.7c0.2-0.2,0.4-0.4,0.4-0.7c0.1-0.3,0.1-0.6,0-0.8c-1-3.4-4.6-15.2-5.2-23.6c0.3-2.9,1.1-6.9,1-7.4l0,0.1  c0.4,1,0.8,2.2,1.2,3.3c1.1,2.9,2.3,5.7,2.7,5.8c1.1,0.4,20.1,6,20.3,5.2c0-0.1,0-0.2,0-0.3l0.1-0.3c0.2-1.1,0.7-2.6,1-3.6  c0-0.2,0.1-0.3,0.1-0.4c0.1-0.4,0.2-0.7,0.2-0.7l-16.1-5.3l-8.1-21.2c-0.2-0.1-2.2-1.2-3.6-1.9c-1.4-0.7-3.2-1.5-4.8-2.3L116.7,92.2  L116.7,92.2z"/>
<path class="st15" d="M105.8,99.6l3.1,1.7l-1.3,1.4l3.5,19c0.7-4.4,1-8.7,1.3-11.3c0.8-8.6-7.8-18.3-8.4-18.9l-1.3,0.5L105.8,99.6z"/>
<path class="st15" d="M116.3,92.3c0,0,1.2,3.8,2.5,13.2c0.5,3.6,1.2,9.8,2,16l0.7-17.8l-1.5-1.6l1.3-1.6l-2.8-7.1l-2.1-1L116.3,92.3  z"/>
<path class="st16" d="M103.8,91.5l2.6-1.6c0,0,0.1,1.4,6.4,5.1l-1.8,5.1L103.8,91.5z"/>
<path class="st16" d="M114.6,90.6c0,0-0.1,1.5-1.7,4.4l3.5,4.6l0.3-7.4L114.6,90.6z"/>
<path class="st17" d="M112.8,95c0,0-0.7,2.7-0.4,3.5c0,0,1.5,0.5,2.6-0.1C114.5,97.1,113.7,96,112.8,95z"/>
<path class="st18" d="M116.4,134.3c0.4-1.9,0-7.7,0-7.9h-0.3c0,0.1,0.4,6,0,7.8L116.4,134.3z"/>
<path class="st19" d="M113.7,133.4c0,0,3.1,0.4,4.1,0.6l-0.1,3.4l-4-0.4L113.7,133.4z"/>
<path class="st17" d="M114.4,98.1c0,0,3.4,8.7,2.9,18.3c-0.6,10-1.5,13.7-1.5,13.7l-2.1,2.6l-0.9-3.3c0,0,2.8-12.8,1-25.3  c-0.3-2.3-0.8-6.5-0.8-6.5L114.4,98.1z"/>
<path class="st6" d="M104,139c0,0,0.7,1.5,1.5,1.7c0.7,0.3,1.8,1.5,1.8,1.5l-5.2,2.7c0,0-1.4-2.7-1.5-4.4  C100.6,138.7,104,139,104,139z"/>
<path class="st10" d="M104.5,139.1l0.3,0.7c0,0-3.3,2.4-4.2,2.6l-0.3-0.9L104.5,139.1z"/>
<path class="st14" d="M104.9,139.1c-1.4,1.2-2.9,2.2-4.6,3L91,125.8l6-3.2C96.9,122.6,104.7,137.9,104.9,139.1z"/>
<path class="st9" d="M125.8,110.3c0.1,2.3,0.1,4.4,0.1,4.4s0,0.1,0,0.2v-0.1c0.4,1,0.8,2.2,1.2,3.3c0.1-1.3,0.1-2.5,0.1-3.5  c-0.2-6.5-2.2-9.9-2.2-9.9C125.5,105.7,125.7,108.1,125.8,110.3z"/>
<linearGradient id="SVGID_1_" gradientUnits="userSpaceOnUse" x1="188.7021" y1="149.2436" x2="32.1508" y2="19.4677" gradientTransform="matrix(1 0 0 -1 0 248)">
	<stop offset="0" style="stop-color:#2B3582"/>
	<stop offset="1" style="stop-color:#150E42"/>
</linearGradient>
<path class="st20" d="M77.7,157.5l110.6-46.9l7,16.2l-110.5,48c-1.1,0.5-2.4,0.6-3.6,0.2c-1.2-0.3-2.2-1.1-2.9-2.1  c-1.5-2.2-2.9-5.6-3.3-10.9c-0.1-0.9,0.2-1.9,0.6-2.7C76.1,158.5,76.9,157.8,77.7,157.5z"/>
<linearGradient id="SVGID_00000178191661449014737000000015499564181566735805_" gradientUnits="userSpaceOnUse" x1="-18972.543" y1="-25314.7637" x2="-18509.543" y2="-24700.5117" gradientTransform="matrix(1 0 0 -1 0 248)">
	<stop offset="0" style="stop-color:#2B3582"/>
	<stop offset="1" style="stop-color:#150E42"/>
</linearGradient>
<path style="fill:url(#SVGID_00000178191661449014737000000015499564181566735805_);" d="M223,104.2l-15.5,2.9  c0.1,2.1,1,4.9,3.6,7.9l12.5-9.4c0.1-0.1,0.2-0.3,0.3-0.4c0-0.2,0-0.4,0-0.5c-0.1-0.2-0.2-0.3-0.4-0.4  C223.4,104.2,223.2,104.2,223,104.2z"/>
<path class="st22" d="M188,110.8c0,3,0.6,6,1.8,8.8c1.2,2.8,3,5.3,5.2,7.4l15.8-11.8c-2.6-3-3.4-5.8-3.6-7.9L188,110.8z"/>
<path class="st23" d="M79.4,162.5c-0.1,0-0.1,0-0.2,0c-0.1,0-0.1-0.1-0.1-0.2c0-0.1,0-0.2,0-0.3s0.1-0.1,0.2-0.2l105.8-44.6  c0,0,0.1,0,0.1,0c0,0,0.1,0,0.1,0c0,0,0.1,0,0.1,0.1c0,0,0.1,0.1,0.1,0.1c0,0,0,0.1,0,0.1c0,0,0,0.1,0,0.1c0,0,0,0.1-0.1,0.1  c0,0-0.1,0.1-0.1,0.1L79.5,162.4C79.5,162.5,79.5,162.5,79.4,162.5z"/>
<path class="st23" d="M81.7,168.8c-0.1,0-0.2,0-0.2-0.1c-0.1,0-0.1-0.1-0.1-0.2c0-0.1,0-0.2,0-0.2c0-0.1,0.1-0.1,0.2-0.2l105.8-44.6  c0.1,0,0.2,0,0.3,0c0.1,0,0.1,0.1,0.2,0.2c0,0.1,0,0.2,0,0.3c0,0.1-0.1,0.1-0.2,0.2L81.8,168.8C81.8,168.8,81.7,168.8,81.7,168.8z"/>
<path class="st6" d="M107.1,141.9c0,0,3.2,4.5,3.1,5c-0.1,0.5-0.4,0.7-0.7,0.3c-0.3-0.4-3.3-4.2-3.3-4.2s2.7,6,2.7,6.4  c0,0.2-0.6,0.6-0.8,0.4c-0.2-0.2-3.3-6-3.3-6s2.5,5.6,2.4,6c-0.1,0.4-0.7,0.5-0.9,0.1c-0.2-0.4-2.9-5.4-2.9-5.4s1.5,4.2,1.2,4.5  c-0.2,0.2-0.7,0.5-1-0.6c-0.3-1.1-1.5-3.6-1.5-3.6L107.1,141.9z"/>
</svg>