<?xml version="1.0" encoding="UTF-8"?>
<!-- Generator: Adobe Illustrator 26.0.3, SVG Export Plug-In . SVG Version: 6.00 Build 0)  -->
<svg version="1.1" id="Layer_1" xmlns="http://www.w3.org/2000/svg" xmlns:xlink="http://www.w3.org/1999/xlink" x="0px" y="0px" viewBox="0 0 357 248" style="enable-background:new 0 0 357 248;" xml:space="preserve">
<style type="text/css">
	.st0{fill:#CE7A63;}
	.st1{fill:#407BFF;}
	.st2{opacity:0.3;enable-background:new    ;}
	.st3{opacity:0.2;enable-background:new    ;}
	.st4{fill:#9F5B53;}
	.st5{fill:#263238;}
	.st6{opacity:0.2;fill:#FFFFFF;enable-background:new    ;}
	.st7{opacity:0.4;enable-background:new    ;}
	.st8{opacity:0.1;fill:#FFFFFF;enable-background:new    ;}
	.st9{fill:#FFB573;}
	.st10{opacity:0.7;fill:#FFFFFF;enable-background:new    ;}
	.st11{opacity:0.6;fill:#FFFFFF;enable-background:new    ;}
</style>
<path class="st0" d="M205.8,56.2c-0.2,1.1-0.4,2.1-0.6,3.1c-0.2,1-0.5,2-0.8,3c-0.6,2-1.3,3.9-2.1,5.8c-1.6,3.8-3.7,7.6-7.1,10.9  c-0.8,0.8-1.8,1.6-2.9,2.2c-0.3,0.2-0.6,0.3-0.8,0.5l-0.7,0.3c-0.5,0.2-0.9,0.5-1.4,0.7c-1.8,0.8-3.7,1.6-5.5,2.3  c-3.7,1.4-7.4,2.6-11.2,3.5l-1.4-3.6c3.4-1.9,6.8-3.7,10.1-5.5c1.7-0.9,3.3-1.8,4.9-2.8c0.4-0.2,0.8-0.5,1.2-0.7l0.6-0.4  c0.2-0.1,0.3-0.2,0.4-0.3c0.6-0.4,1.1-0.9,1.6-1.4c2.1-2.2,3.7-5.4,5-8.7c0.7-1.7,1.2-3.4,1.7-5.1c0.3-0.9,0.5-1.7,0.7-2.6  c0.2-0.9,0.4-1.8,0.6-2.6L205.8,56.2z"/>
<path class="st1" d="M190,66.5l8.1,6.1c0,0,0.3-0.3,0.8-0.9c0.4-0.4,0.9-1,1.4-1.7c3.2-3.9,7.8-10.9,7.8-14.3  c0.1-5.1-5.3-5.9-11.3-0.6c-2.6,2.3-3.9,6-5.2,8.4c-0.4,0.8-0.8,1.4-1.1,2C190.3,66,190,66.5,190,66.5z"/>
<path class="st2" d="M208.3,56.2c-1.8-1.2-3.2,1.9-6.8,4.6c-1.6,1.2-5.2,8.9-4.9,10.6l1.6,1.2C198.2,72.6,208.3,61.3,208.3,56.2z"/>
<path class="st0" d="M172.7,84.5l-6.7-1.8l0.5,6.7c0,0,6.6,0.7,7.2-1.3L172.7,84.5z"/>
<path class="st0" d="M160.8,86.1l1.5,4.6l4.1-1.3l-0.5-6.7L160.8,86.1z"/>
<path class="st1" d="M200.2,96.3h27.6c0.2-2.5-0.4-10.5,0-20.7c0.3-6.8,1-14.7,2.7-22.5c0.1-0.6,0.2-1.1,0.4-1.7  c0,0-1.4-0.3-3.4-0.6c-1.7-0.2-3.7-0.5-5.8-0.6c-3.5-0.2-8.6-0.3-11.7,0c-1.8,0.2-3.6,0.5-5,0.7c-1.8,0.4-2.8,0.7-2.8,0.7  S195.4,67.3,200.2,96.3z"/>
<path class="st2" d="M227.8,75.7c0.3-6.8,1-14.7,2.7-22.5c-1.8-0.2-5,0-5.5,3C224.5,59.4,225.2,66.9,227.8,75.7z"/>
<path class="st0" d="M221.5,38.5l-3.1,2.6l-4.3,3.5c0.1,0.6,0.2,1.2,0.3,1.7c0.2,2.3-0.4,3.1-3.8,3.9c0,0-4,2.7,2,3.2  c0,0.4,0.1,1.3,0.3,1.9c0.6-0.9,1.6-1.6,1.9-1.9c6.6-0.1,7.4-3.2,7.4-3.2C219.6,47.9,220.6,42.3,221.5,38.5z"/>
<path class="st3" d="M214.1,44.7c0.1,0.6,0.2,1.2,0.3,1.7c1.6-0.3,3.7-2,3.9-3.6c0.1-0.6,0.1-1.2,0.1-1.6L214.1,44.7z"/>
<path class="st4" d="M202.6,223.3l-5.8,0.6l-0.3-3.4l-0.8-9.1l5.8-0.6l0.9,10.1L202.6,223.3z"/>
<path class="st4" d="M231.6,222.6H226l0-1.3l0-0.2l-0.3-8.1l0-0.2l-0.1-3.1h5.6L231.6,222.6z"/>
<path class="st3" d="M201.6,210.8l0.9,10.1l-5.9-0.3l-0.8-9.1L201.6,210.8z"/>
<path class="st3" d="M231.5,221.9L231.5,221.9l-5.6-0.7h0l-0.3-7.9h0l5.6,0.5l0.3,7.9L231.5,221.9z"/>
<path class="st5" d="M225.2,222.2h6.8c0.2,0,0.4,0.2,0.5,0.4l1.1,5c0.1,0.4-0.2,0.9-0.6,1c-0.1,0-0.1,0-0.2,0  c-2.2,0-3.8-0.2-6.6-0.2c-1.7,0-6.9,0.2-9.2,0.2c-2.4,0-2.7-2.3-1.7-2.5c4.3-0.9,7.6-2.3,9-3.5C224.5,222.4,224.8,222.2,225.2,222.2  z"/>
<path class="st5" d="M196.2,222.1h6.8c0.2,0,0.4,0.2,0.5,0.4l1.1,5c0.1,0.4-0.2,0.9-0.6,1c-0.1,0-0.1,0-0.2,0  c-2.2,0-3.8-0.2-6.6-0.2c-1.7,0-6.9,0.2-9.2,0.2c-2.4,0-2.7-2.3-1.7-2.5c4.3-0.9,7.6-2.3,9-3.5C195.5,222.2,195.9,222.1,196.2,222.1  z"/>
<path class="st5" d="M232.3,220.4h-8.1c0,0-6.5-35.1-9.1-52.9c-0.4-2.8-0.8-6.4-1.3-10.6c-0.7-6.8-1.4-15.1-2-23  c-1.9,5.2-3.4,12.7-4.6,21.2c-4.1,30.4-3.7,64.7-3.7,64.7h-8.2c-6.4-48.6,2.1-108.4,5-123.4h27.5c0,3.6,1.6,54.3,2.6,73.3  C231.3,187.2,232.3,220.4,232.3,220.4z"/>
<path class="st1" d="M194.3,217.4l0.4,2.3h9.7v-2.1L194.3,217.4z"/>
<path class="st1" d="M223.2,218.3l0.9,2.1h8.2l0.5-2.1H223.2z"/>
<path class="st5" d="M221.6,39c0,0,1.7,0.8,2.2-0.1c0.5-1,0-2.4,0.8-2.7c0.8-0.3,2.6-0.3,2.5-1.3c-0.1-1-1.3-1.8-0.5-2.5  c0.8-0.6,2.4-1.6,1.7-2.3c-0.7-0.8-1.4-2.1-0.7-2.5c0.6-0.5-0.2-3.1-1.8-3c-1.6,0.2-1.3-1.1-1.3-2.2c0-1.1-2.3-2.1-2.9-1  c-0.6,1.1-1.8-0.3-2.1-1.3c-0.3-1-1-1.4-2.4-0.6c-1.4,0.7-1.6,3.1-2.4,1.7c-0.7-1.4-2.4-2.3-3.1-1.5c-0.8,0.8-0.3,1.7-1.6,1.7  c-1.2-0.1-3,2.2-2.4,2.5c0.6,0.3,0.5,1-0.3,1.6c-0.8,0.7-1.8,1.8-0.7,2.3c1.1,0.5,1,1.3,0.7,1.6c-0.3,0.3,0.6,1.9,2.1,1.8  C210.9,31.1,221.6,39,221.6,39z"/>
<path class="st5" d="M208.7,24.8c0,0-2.8,6.7,0.2,10.2c3,3.6,6.3-9.3,6.3-9.3L208.7,24.8z"/>
<path class="st0" d="M218.2,43.2c-2.4,2.1-5.5,2-7.8,0.6c-1.5-0.9-2.7-2.4-3.2-4.3c-0.1-0.2-0.1-0.5-0.2-0.7  c-0.7-4.7,0.6-12.2,5.7-13.9c3.7-1.2,7.6,0.8,8.8,4.5c0.3,1,0.4,2.2,0.3,3.3C221.2,37.8,221,40.8,218.2,43.2z"/>
<path class="st5" d="M218.6,26l-0.6,0.9c1.6,0.8,1,2.7,0.6,3.5c-1,1.8-0.3,4.9,1,6.2c0,0,0.2-0.8,0.8-0.5c0.7,0.3,0,3.8,0,3.8  s0.6,1,2.3-3.3c1.6-4,2.2-7.4,1.5-9.1L218.6,26z"/>
<path class="st0" d="M223.8,37.1c-0.7,1.1-1.7,1.9-3,2.2c-1.7,0.4-2.4-1.1-2-2.6c0.5-1.4,1.9-3.3,3.5-3  C224,34,224.6,35.7,223.8,37.1z"/>
<path class="st5" d="M214.9,23c0,0-2.8,0-4.2,1.2c-1.4,1.1-2.4,2.9-1.9,3.1c0.5,0.2,2-0.7,2.3-0.5s0.4,2.4,1.8,1.6  c1.4-0.7,0.6-0.7,1.7-1c1.1-0.3,1.8,1.1,2.2,1c0.5-0.1,1-0.5,1-0.5s-1.5-0.5-1.6-1c-0.1-0.5-1.5-0.7-1.5-0.7s1.8-0.6,2.4-0.1  c0.6,0.5,0.2,1.6,1.7,1.6c1.5,0,3.7,1.3,4-0.6C223.1,25.2,218.2,21.8,214.9,23z"/>
<path class="st1" d="M222.2,47.8l-7,3l-2.3,4.5l2.3-1.5l2.9,2.8l6.1-6.1L222.2,47.8z"/>
<path class="st1" d="M212.8,55.4l-0.7-4c0,0,0.1-1.2,1.7-2.3l-2.5-1.2c0,0-3.9,4.7-4.1,7.6l3.4-2.3L212.8,55.4z"/>
<path class="st6" d="M222.2,47.8l-7,3l-2.3,4.5l2.3-1.5l2.9,2.8l6.1-6.1L222.2,47.8z"/>
<path class="st6" d="M212.8,55.4l-0.7-4c0,0,0.1-1.2,1.7-2.3l-2.5-1.2c0,0-3.9,4.7-4.1,7.6l3.4-2.3L212.8,55.4z"/>
<path class="st1" d="M192.6,222.5c-0.1-0.2-0.1-0.4,0.1-0.7c0.1-0.1,0.2-0.2,0.4-0.2c0.7,0,1.8,1.4,1.9,1.5c0,0,0,0.1,0,0.1  c0,0-0.1,0.1-0.1,0.1c-0.4,0-0.9-0.1-1.4-0.2C193,222.9,192.7,222.7,192.6,222.5z M193,221.8c-0.1,0-0.1,0-0.2,0.1  c-0.1,0.2-0.1,0.3-0.1,0.4c0.2,0.3,0.8,0.5,1.7,0.6C194,222.5,193.4,221.8,193,221.8z"/>
<path class="st1" d="M194.7,223.3c-0.4-0.5-0.8-1.7-0.5-2.2c0.1-0.2,0.3-0.3,0.5-0.2c0.2,0,0.3,0.1,0.4,0.3c0.3,0.6-0.2,2-0.2,2.1  c0,0-0.1,0.1-0.1,0.1C194.8,223.3,194.7,223.3,194.7,223.3C194.7,223.3,194.7,223.3,194.7,223.3z M194.6,221.1c-0.2,0-0.2,0-0.3,0.1  c-0.2,0.3,0,1.3,0.4,1.8c0.2-0.5,0.4-1.3,0.2-1.7C194.9,221.2,194.8,221.1,194.6,221.1C194.7,221.1,194.7,221.1,194.6,221.1z"/>
<path class="st1" d="M221.5,222.5c-0.1-0.2-0.1-0.4,0.1-0.7c0.1-0.1,0.2-0.2,0.4-0.2c0.7,0,1.8,1.4,1.9,1.5c0,0,0,0.1,0,0.1  c0,0-0.1,0.1-0.1,0.1c-0.4,0-0.9-0.1-1.4-0.2C222,222.9,221.6,222.7,221.5,222.5z M221.9,221.8c-0.1,0-0.1,0-0.2,0.1  c-0.1,0.2-0.1,0.3-0.1,0.4c0.2,0.3,0.8,0.5,1.7,0.6C223,222.5,222.3,221.8,221.9,221.8z"/>
<path class="st1" d="M223.6,223.3c-0.4-0.5-0.8-1.7-0.5-2.2c0.1-0.2,0.3-0.3,0.5-0.2c0.2,0,0.3,0.1,0.4,0.3c0.3,0.6-0.2,2-0.2,2.1  c0,0-0.1,0.1-0.1,0.1C223.7,223.3,223.7,223.3,223.6,223.3C223.6,223.3,223.6,223.3,223.6,223.3z M223.6,221.1c-0.2,0-0.2,0-0.3,0.1  c-0.2,0.3,0,1.3,0.4,1.8c0.2-0.5,0.4-1.3,0.2-1.7C223.8,221.2,223.7,221.1,223.6,221.1C223.6,221.1,223.6,221.1,223.6,221.1z"/>
<path class="st2" d="M211.7,133.9c-1.9,5.2-3.4,12.7-4.6,21.2c-2.8-11.3,3.9-32.3,3.9-32.3L211.7,133.9z"/>
<path class="st0" d="M231.6,53.8c0.9,0.7,1.6,1.2,2.3,1.9c0.7,0.6,1.4,1.3,2.2,1.9c1.4,1.3,2.7,2.7,4,4.2c1.3,1.5,2.5,3.1,3.5,4.8  c1.1,1.7,2,3.6,2.7,5.7c0.2,0.5,0.3,1.1,0.4,1.6c0.1,0.5,0.3,1.3,0.3,1.9c0.1,1.3-0.1,2.4-0.3,3.4c-0.4,2-0.9,3.9-1.6,5.7  c-1.3,3.6-2.8,6.9-4.7,10.2l-3.6-1.5c0.9-3.4,1.8-6.9,2.5-10.3c0.3-1.7,0.6-3.4,0.7-4.9c0.1-0.8,0-1.5,0-2c0-0.3-0.1-0.3-0.2-0.7  c-0.1-0.3-0.2-0.7-0.3-1c-1.1-2.7-3.1-5.3-5.3-7.8c-1.1-1.2-2.3-2.4-3.6-3.6c-0.6-0.6-1.2-1.2-1.9-1.7c-0.6-0.5-1.3-1.1-1.9-1.6  L231.6,53.8z"/>
<path class="st1" d="M225.2,62.2c2,3,4.9,6.5,7,9c0.6,0.6,1.1,1.2,1.5,1.7c0.7,0.8,1.2,1.3,1.2,1.3l8.6-8.3c0,0-0.2-0.4-0.7-1  c-0.3-0.5-0.7-1.1-1.2-1.9c-3-4.3-8.7-12-12.2-11.6C224.1,52,221.5,56.7,225.2,62.2z"/>
<path class="st0" d="M240.5,95.1l-2.6,5.1l-3.4-6.2c0,0,3.1-4.1,5.1-2.3L240.5,95.1z"/>
<path class="st0" d="M232.7,101.5l-2.6-5.3l4.3-2.3l3.4,6.2L232.7,101.5z"/>
<path class="st1" d="M142.7,126.9l33.7,5l0.3,27.3l-8.4,7.9l-36.4-6.7l1.6-29.1L142.7,126.9z"/>
<path class="st7" d="M176.7,159.2l-3.3,3.1l-0.7,0.7l-4.4,4.1l-36.4-6.7l1.6-29.1l3.9-1.9l1.2-0.6l4-1.9l33.7,5L176.7,159.2z"/>
<path class="st6" d="M133.5,131.2l33.2,5.4l9.6-4.7l-33.7-5L133.5,131.2z"/>
<path class="st8" d="M166.8,136.6l1.5,30.5l8.4-7.9l-0.3-27.3L166.8,136.6z"/>
<path class="st5" d="M173.4,162.3l-0.7,0.7l-1.3-28.5l-33.9-5l1.2-0.6l33.5,5.2L173.4,162.3z"/>
<path class="st5" d="M149,130.6l2.1-1l8.5,1.2l-1.9,1.2L149,130.6z"/>
<path class="st5" d="M145.7,130.2c0,0,2.4-8.6,2.8-9.1c0.4-0.5,12.3,1.3,13.2,1.5c0.9,0.1,2,9.5,2,9.5l-1,0.8l-2.2-0.4  c0,0-0.4-8-0.6-8.2s-9.4-1.6-9.7-1.5c-0.3,0.1-1.5,6.9-1.5,6.9l-1.1,0.8L145.7,130.2z"/>
<path class="st5" d="M144.2,67.4c4.3,2.9,4.7,21.9,5.1,27.3c0.4,5.4,3.8,20.3,3.8,20.3l-3.6,1.3c0,0-3.9-14.2-5.3-22.4  C143.6,90.8,144.2,67.4,144.2,67.4z"/>
<path class="st6" d="M153,114.9l-3.6,1.3c0,0-3.9-14.2-5.3-22.4c0-0.2-0.1-0.5-0.1-0.9c-0.2-2.3-0.2-7.3-0.1-12.3  c0.1-6.7,0.2-13.3,0.2-13.3c2.5,1.7,3.7,8.8,4.3,15.6c0.2,2.5,0.4,5,0.5,7.1c0.1,2,0.2,3.6,0.3,4.7C149.7,100,153,114.9,153,114.9z"/>
<path class="st3" d="M149,90c-1.3,0.9-3.2,2.2-4.9,2.9c-0.2-2.3-0.2-7.3-0.1-12.3l1.2,2.7l3.4-0.4C148.7,85.5,148.9,87.9,149,90z"/>
<path class="st9" d="M155.5,85l5.2-2.9l1,5.6c0,0-5.3,1.9-6.2,0.4L155.5,85z"/>
<path class="st9" d="M165.7,83.9l-0.3,4.1l-3.7-0.3l-1-5.6L165.7,83.9z"/>
<path class="st5" d="M120.2,40c0,0,1.6-5.3,10-4.6c8.4,0.7,10.6,8.3,8.3,14.3c-2.3,6,0.2,10.8,0.2,10.8s-1.4-0.6-1.9-2.3  c0,0-0.2,1.5,0.5,3c0,0-11,2.2-16.6,0.6c0,0,1.4-1.9,1.1-4.3c0,0-0.3,2.5-1.3,3.3c0,0,1-2.9,0.5-4.9c-0.6-2-3.9-2.2-4.5-7.6  C116,42.8,118,39.4,120.2,40z"/>
<path class="st9" d="M143.4,101.4c0,0,3.9,30.5,3.6,49.9c1.4,18.2,2.5,56.3,4.6,60.4c-0.1,0.9-2.7,1.3-3.6,0.8  c0,0-14.2-31.7-12.3-61.2c-12.5-30.8-11.7-49.9-11.7-49.9H143.4z"/>
<path class="st9" d="M138,101.4c0,0-8.9,34.4-12.5,51.4c-3.7,17.8-7.5,39.2-7.6,59.4c-1,0.6-1.3,1.6-3.3,1c0,0-9.5-40.6-1.4-59.6  c-3.5-42.1,7.6-52.1,7.6-52.1H138z"/>
<path class="st5" d="M111.7,146.8c0.4,0.5,1.1,1.1,2.1,1.6c0.1-3.9,1.2-5.7,1.2-5.7s-0.4,3,0.6,6.6c6,2.5,17.4,4.2,31.8,0.7  c0-16.8-3.3-45.2-3.6-47.9c0,0-17,0.4-23.9,0.4C112.3,111.5,110.3,140.4,111.7,146.8z"/>
<path class="st5" d="M114.7,213.2c0,0-2.1,0.6-2.4,3.7c-0.2,3.1,0.7,11.8,0.7,11.8h0.8c0,0-0.2-7.8,0.1-9.2c0.2,4.1,3.2,9.2,7,9.2  c1.4,0-1.6-6.2-2.1-10c-0.5-3.8-0.6-5.1-0.6-5.1L114.7,213.2z"/>
<path class="st9" d="M118.1,210.7l-3.4,2.5c0.2,4.2,1.7,9.6,3.7,11.4c0.5,0.5,1.4-0.1,1.3-0.8C118.1,217.5,118.1,210.7,118.1,210.7z  "/>
<path class="st5" d="M148.6,213.2c0,0-2.1,0.6-2.4,3.7c-0.2,3.1,0.7,11.8,0.7,11.8h0.8c0,0-0.2-7.8,0.1-9.2c0.2,4.1,3.2,9.2,7,9.2  c1.4,0-1.6-6.2-2.1-10s-0.9-5.4-0.9-5.4H148.6z"/>
<path class="st9" d="M151.1,210.3c-0.4-1-3.3,1.9-3.3,1.9c0.2,4.2,2.5,10.6,4.5,12.3c0.5,0.5,1.4-0.1,1.3-0.8  C152,217.5,152.1,213.2,151.1,210.3z"/>
<path class="st6" d="M111.7,146.8c0.4,0.5,1.1,1.1,2.1,1.6c0.1-3.9,1.2-5.7,1.2-5.7s-0.4,3,0.6,6.6c6,2.5,17.4,4.2,31.8,0.7  c0-16.8-3.3-45.2-3.6-47.9c0,0-17,0.4-23.9,0.4C112.3,111.5,110.3,140.4,111.7,146.8z"/>
<path class="st1" d="M119.2,82.9h26.1c0.3-4.7,0.2-7.3,0.1-9.4c-0.1-3.9-3.4-7.2-7.5-7.8c-1.1-0.2-2.3-0.3-3.5-0.4  c-3.5-0.3-6.7-0.2-10.6,0c-1,0-2,0.1-2.9,0.2c-3.5,0.3-5.8,3.5-4.6,6.6C117.9,76.1,118.7,79.7,119.2,82.9z"/>
<path class="st10" d="M119.2,82.9h26.1c0.3-4.7,0.2-7.3,0.1-9.4c-0.1-3.9-3.4-7.2-7.5-7.8c-1.1-0.2-2.3-0.3-3.5-0.4  c-3.5-0.3-6.7-0.2-10.6,0c-1,0-2,0.1-2.9,0.2c-3.5,0.3-5.8,3.5-4.6,6.6C117.9,76.1,118.7,79.7,119.2,82.9z"/>
<path class="st5" d="M123.8,64.9L135,78.5c0,0,2.2-7,1-13c0,0,4.9,0,8.1,1.9c0,0,4.7,7.7,0,29.6l1.4,10.4l-7.9,2.4l-2.6-7.6l-3.1,8  l-15.2-4.3l4.3-8c0,0-1.4-18.5-5.6-26.9C115.4,70.9,116.1,64.8,123.8,64.9z"/>
<path class="st5" d="M141.2,76l-5.6,3.8l1,3.5c-3.9-6.2-11.5-7.3-11.5-7.3l2.4-3.2h-5.9c-0.1-4.1,2.8-8.4,2.8-8.4  c0.4-0.1,0.7-0.1,1-0.2c0.7,1.4,3.9,6.7,9.5,13.5c0,0,2.3-9.1-1.1-12.9c5.9,2,7.9,7,7.9,7l-3.6,1.1L141.2,76z"/>
<path class="st6" d="M141.2,76l-5.6,3.8l1,3.5c-3.9-6.2-11.5-7.3-11.5-7.3l2.4-3.2h-5.9c-0.1-4.1,2.8-8.4,2.8-8.4  c0.4-0.1,0.7-0.1,1-0.2c0.7,1.4,3.9,6.7,9.5,13.5c0,0,2.3-9.1-1.1-12.9c5.9,2,7.9,7,7.9,7l-3.6,1.1L141.2,76z"/>
<path class="st9" d="M124.7,53.4c0.9,3.4,2,9.6-0.2,11.9c0,0-1.6,3,7.4,2.7c0.8,1.9,2.3,5.3,2.3,5.3s0.1-4-0.5-5.4  c5.8-0.5,1.4-2.6,1.4-2.6c-3.9-0.9-4-3.7-3.5-6.4L124.7,53.4z"/>
<path class="st3" d="M127.5,55.7l4.1,3.3c-0.1,0.6-0.2,1.3-0.2,1.9c-1.5-0.2-3.6-1.8-3.8-3.3C127.4,56.7,127.4,56,127.5,55.7z"/>
<path class="st9" d="M121.8,46.6c1,5.5,1.4,7.8,4.5,10.5c4.7,4,11.2,1.9,11.8-3.7c0.6-5-1.2-13.2-6.9-15  C125.6,36.5,120.7,41.1,121.8,46.6z"/>
<path class="st5" d="M126.5,42.6c-3,3.9,3.2,8.4-3,8.2c-6.2-0.3-3.7-9.1,0-11.1C127.1,37.7,126.5,42.6,126.5,42.6z"/>
<path class="st5" d="M123.5,39.8c0.8,3.7,1.4,4.7,4.7,3.7c-0.8-1-0.6-2.5-0.6-2.5s0.6,1.6,1.9,2.1c1-0.4,1.9-0.7,2.8-0.9  c-0.3-0.7-0.2-1.6-0.2-1.6s0.4,1,1.3,1.5c0.9,0,1.8,0.2,3,0.5C136.3,38.6,129.6,34.3,123.5,39.8z"/>
<path class="st9" d="M121.2,51.9c0.6,1.1,1.5,1.8,2.3,2c1.3,0.3,1.8-1.1,1.4-2.6c-0.4-1.3-1.5-3.1-2.8-2.8  C121,48.9,120.6,50.6,121.2,51.9z"/>
<path class="st9" d="M154.4,124.3l0.9-1.5c0.3-0.5,0.4-1.2,0.2-1.8l-1.2-2.8c-0.5-1.1-1.4-2-2.6-2.2l-0.7-0.2  c-1.7,2.3-1.8,6.1-1.8,6.1l-0.2,1.1c-0.1,1,0.5,1.8,1.4,1.9l2.1,0.3C153.3,125.3,154,124.9,154.4,124.3z"/>
<path class="st5" d="M143.7,103.1c-7.9,0.9-16.1,0.8-24,0c-0.3,0-0.6-0.4-0.4-0.7c0.2-0.4,0.4-0.9,0.6-1.3c0.1-0.2,0.3-0.3,0.5-0.3  c7.6,0.8,15.5,0.8,23,0c0.3,0,0.5,0.2,0.6,0.5c0,0.5,0.1,0.9,0.1,1.4C144.2,102.8,144,103,143.7,103.1z"/>
<path class="st1" d="M132.3,63.9c0,0,1.7,1.8,1.3,4l3.9,0.8C137.6,68.7,137,64.3,132.3,63.9z"/>
<path class="st1" d="M131.9,68c0,0-5.2-3-6.4-4.7l-2.3,1.8c0,0-0.7,2.7,2.4,5.2L131.9,68z"/>
<path class="st11" d="M132.3,63.9c0,0,1.7,1.8,1.3,4l3.9,0.8C137.6,68.7,137,64.3,132.3,63.9z"/>
<path class="st11" d="M131.9,68c0,0-5.2-3-6.4-4.7l-2.3,1.8c0,0-0.7,2.7,2.4,5.2L131.9,68z"/>
<path class="st5" d="M155.8,89.4c-3.6,0.8-7.2,1.5-10.9,1.9c-1.9,0.2-3.9,0.4-5.9,0.4c-2,0-4,0-6.3-0.4c-1.1-0.2-2.3-0.5-3.6-1.2  l-0.5-0.3l-0.3-0.2l-0.6-0.4c-0.4-0.3-0.9-0.6-1.3-0.9c-1.7-1.2-3.2-2.7-4.6-4.2c-1.4-1.5-2.7-3.1-3.9-4.9c-0.6-0.9-1.1-1.8-1.6-2.7  c-0.3-0.5-0.5-0.9-0.7-1.4l-0.3-0.7c-0.1-0.3-0.2-0.5-0.4-0.8c-0.7-1.8-0.2-4.8,1.6-5.5c1.7-0.7,4,1,4.8,2.7l0.1,0.2l0.2,0.5  l0.3,0.6c0.2,0.4,0.4,0.7,0.6,1.1c0.4,0.7,0.9,1.5,1.3,2.2c0.9,1.5,2,2.8,3.1,4.2c1.1,1.3,2.3,2.6,3.6,3.7c0.3,0.3,0.6,0.6,1,0.8  l0.9,0.7c0.3,0.2,1,0.5,1.7,0.7c1.5,0.4,3.3,0.6,5.1,0.7c1.8,0.1,3.6,0.2,5.5,0.2c3.6,0,11-1.1,11-1.1L155.8,89.4z"/>
<path class="st6" d="M155.8,89.4c-3.6,0.8-7.2,1.5-10.9,1.9c-1.9,0.2-3.9,0.4-5.9,0.4c-2,0-4,0-6.3-0.4c-1.1-0.2-2.3-0.5-3.6-1.2  l-0.5-0.3l-0.3-0.2l-0.6-0.4c-0.4-0.3-0.9-0.6-1.3-0.9c-1.7-1.2-3.2-2.7-4.6-4.2c-1.4-1.5-2.7-3.1-3.9-4.9c-0.6-0.9-1.1-1.8-1.6-2.7  c-0.3-0.5-0.5-0.9-0.7-1.4l-0.3-0.7c-0.1-0.3-0.2-0.5-0.4-0.8c-0.7-1.8-0.2-4.8,1.6-5.5c1.7-0.7,4,1,4.8,2.7l0.1,0.2l0.2,0.5  l0.3,0.6c0.2,0.4,0.4,0.7,0.6,1.1c0.4,0.7,0.9,1.5,1.3,2.2c0.9,1.5,2,2.8,3.1,4.2c1.1,1.3,2.3,2.6,3.6,3.7c0.3,0.3,0.6,0.6,1,0.8  l0.9,0.7c0.3,0.2,1,0.5,1.7,0.7c1.5,0.4,3.3,0.6,5.1,0.7c1.8,0.1,3.6,0.2,5.5,0.2c3.6,0,11-1.1,11-1.1L155.8,89.4z"/>
<path class="st1" d="M153.6,84.5L154,90l2.3-0.4l-0.3-5.1L153.6,84.5z"/>
<path class="st10" d="M153.6,84.5L154,90l2.3-0.4l-0.3-5.1L153.6,84.5z"/>
<path class="st1" d="M153.8,114.6l-5.4,1.2l0.7,2.2l5-1.1L153.8,114.6z"/>
<path class="st10" d="M153.8,114.6l-5.4,1.2l0.7,2.2l5-1.1L153.8,114.6z"/>
</svg>