<?xml version="1.0" encoding="UTF-8"?>
<!-- Generator: Adobe Illustrator 26.0.3, SVG Export Plug-In . SVG Version: 6.00 Build 0)  -->
<svg version="1.1" id="Layer_1" xmlns="http://www.w3.org/2000/svg" xmlns:xlink="http://www.w3.org/1999/xlink" x="0px" y="0px" viewBox="0 0 360 249" style="enable-background:new 0 0 360 249;" xml:space="preserve">
<style type="text/css">
	.st0{fill:#2B6398;}
	.st1{fill:#2B4177;}
	.st2{fill:#9BE0EF;}
	.st3{fill:#4295EF;}
	.st4{fill:#FF8D68;}
	.st5{fill:#FF7759;}
	.st6{fill:none;stroke:#E66657;stroke-width:0.7401;stroke-miterlimit:10;}
	.st7{fill:#DEE0E8;}
	.st8{fill:#16142A;}
	.st9{fill:#2B233B;}
	.st10{fill:none;stroke:#2A2E59;stroke-width:0.7401;stroke-miterlimit:10;}
	.st11{fill:#7E3636;}
	.st12{fill:#713336;}
	.st13{fill:none;stroke:#524B81;stroke-width:0.7401;stroke-miterlimit:10;}
	.st14{fill:#BFD9FF;}
	.st15{fill:#FFFFFF;}
	.st16{fill:#7E2D2C;}
	.st17{fill:#40BFE0;}
	.st18{fill:#FF7657;}
	.st19{fill:#FF9677;}
	.st20{fill:#FFA402;}
	.st21{fill:#C2D4D9;}
	.st22{fill:none;stroke:#FFFFFF;stroke-width:4.2155;stroke-linecap:round;stroke-linejoin:round;stroke-miterlimit:10;}
	.st23{fill:none;stroke:#24ADB2;stroke-width:4.2155;stroke-linecap:round;stroke-linejoin:round;stroke-miterlimit:10;}
	.st24{fill:#C9EBF7;}
	.st25{fill:none;stroke:#FFFFFF;stroke-width:3.6293;stroke-linecap:round;stroke-linejoin:round;stroke-miterlimit:10;}
	.st26{fill:none;stroke:#9BE0EF;stroke-width:3.6293;stroke-linecap:round;stroke-linejoin:round;stroke-miterlimit:10;}
	.st27{fill:#F55B51;}
	.st28{fill:#4AA890;}
	.st29{fill:none;stroke:#318A7C;stroke-width:0.7904;stroke-miterlimit:10;}
	.st30{fill:none;stroke:#E66657;stroke-width:0.749;stroke-miterlimit:10;}
	.st31{fill:#D56F02;}
	.st32{fill:none;stroke:#2B3257;stroke-width:0.7904;stroke-miterlimit:10;}
	.st33{fill:none;stroke:#B05702;stroke-width:0.7904;stroke-miterlimit:10;}
</style>
<path class="st0" d="M82.6,46.8H68.3c-1.1,0-2-0.9-2-2c0-1.1,0.9-2,2-2h14.2V46.8z"/>
<path class="st1" d="M75.7,50.4H55.6c-1.6,0-2.9-1.3-2.9-2.9c0-1.6,1.3-2.9,2.9-2.9h20.1V50.4z"/>
<path class="st2" d="M93.8,50.4H73.7c-1.6,0-2.9-1.3-2.9-2.9c0-1.6,1.3-2.9,2.9-2.9h20.1V50.4z"/>
<path class="st3" d="M75.8,47.5c0,1-0.8,1.9-1.9,1.9c-1,0-1.9-0.8-1.9-1.9s0.8-1.9,1.9-1.9C74.9,45.6,75.8,46.4,75.8,47.5z"/>
<path class="st4" d="M57.3,53.9l0.9-3.1l-2.3-2.3c-0.5-0.5-0.6-1.2-0.3-1.8l1.6-3.2l6.6-0.3l1.7,1.7l-2.2,0.5l-0.9,3.7  c0,0,0.5,1.1,0.5,1.5c0,0.4-1,4.5-1,4.5L57.3,53.9z"/>
<path class="st5" d="M55.5,47.6l5.9,1.4l2.4-0.8l0.9,2l-1.8,0.4L58.9,51L55.5,47.6z"/>
<path class="st6" d="M65.4,45l-1.7-1.7l-2,1.1"/>
<path class="st6" d="M63.8,43.3l-4.1,0.3l-0.6,0.5"/>
<path class="st4" d="M61.4,49l2.4-0.8c0,0,1.4-1.5,2.3-1.3c0.9,0.3,1,0.9,1,0.9l-2.4,2.4l-3.2,1L61.4,49z"/>
<path class="st6" d="M62.5,44.5l-5.3-0.9l-1.7,4.1l2.7,3.2"/>
<path class="st6" d="M67.1,47.9c0,0-1-1.1-1.8-0.9c-0.9,0.3-1.5,1.2-1.5,1.2l-1.7,0.3"/>
<path class="st7" d="M55.6,56.3l1.5-3.6c0,0,2.9-0.1,5.3,1.4l-1.1,3.6L55.6,56.3z"/>
<path class="st8" d="M96.1,209.3c0,0-0.8-1.8-3.9-1.3c-3.1,0.5-3.5,1.1-3.8,2.6c-0.4,1.6-1.4,3.2-2.1,3.6c-0.7,0.4-3.3,2.1-5.5,2.5  c-2.1,0.4-2.4,1.7-1.9,2.3c0.5,0.6,8.6,1.1,10.4,0.8c0,0,6.1-0.1,7.5-0.6C98.1,218.7,96.2,209.9,96.1,209.3z"/>
<path class="st8" d="M80.6,209.3c0,0-0.8-1.8-3.9-1.3c-3.1,0.5-3.5,1.1-3.8,2.6c-0.4,1.6-1.4,3.2-2.1,3.6c-0.7,0.4-3.3,2.1-5.5,2.5  c-2.1,0.4-2.4,1.7-1.9,2.3c0.5,0.6,8.6,1.1,10.4,0.8c0,0,6.1-0.1,7.5-0.6C82.6,218.7,80.7,209.9,80.6,209.3z"/>
<path class="st9" d="M99,164.9c0,0,0.9-4.9-4.3-6.6c-5.2-1.7-6.2,0.8-7.8,5.3c-1.6,4.5,1.3,47,1.3,47s6.4,0.1,7.9-0.8  c0,0,4.2-28.2,3.9-35.1C99.7,167.9,99,164.9,99,164.9z"/>
<path class="st4" d="M80.4,38.4c0,0-3.5,0.9-5.5,6.3c-2,5.4-0.7,16.9,0.7,18.3s5.4,0.8,11-1c5.9-2,7.9-8.1,9-12.2  C97.6,42,90.8,34,80.4,38.4z"/>
<path class="st4" d="M93.1,68.3L90.2,58c0,0-5.7-1.7-9.3,2.1l-1.2,1.7v6.7C79.7,68.5,85.7,69.7,93.1,68.3z"/>
<path class="st9" d="M101.1,123.5c0,0,2.1,12.5,0,26.8c-2.1,14.3-6.4,15.7-10.4,15.7c-3.9,0-5-11.4-5.7-16.5  c-0.7-5-3.6-22.2,1.8-26.1C92.1,119.6,98.2,119.2,101.1,123.5z"/>
<path class="st9" d="M86.1,140.3c0,0,4.3-11.4-3.2-16.5c-7.5-5-13.2-4.3-15,3.9c-1.8,8.2-2.1,36.5,0.4,42.2  C70.7,175.7,79.6,166.8,86.1,140.3z"/>
<path class="st7" d="M94.6,68.2c0,0-0.8-2.8-1.5-3c-0.7-0.2-9.5-1.2-14.3,1.7c-2.1,1.7-1.9,2.9-1.9,2.9S91.1,67,94.6,68.2z"/>
<path class="st9" d="M66.9,89.3c0,0-2.6,32.2-1.8,44.6c1,2.4,20.9,3,24.2,2.8c3.3-0.2,14.3-2.6,14.5-3.3c0.2-0.7-2.1-32.5-1.6-35.8  c0.5-3.3,1.9-19.8,1.4-22.2c-0.5-2.4-2.6-6.9-7.2-7.9c0,0-14.8-1-25.3,3.6c0,0-7.9,1.4-12.9,3.1c0,0,2.7-13.6,4-17.6  c0,0-3.6-2.7-7.3-1.7c0,0-6.7,15.2-8,28.6c-0.2,1.5,0.9,2.9,2.5,3.2C55.2,87.5,66.9,89.3,66.9,89.3z"/>
<path class="st9" d="M79.3,165.7c0,0,0.4-5-5-6.1c-5.4-1.1-6.1,1.4-7.2,6.1c-1.1,4.6,5.3,45.2,5.3,45.2s7,0.4,8.5-0.7  c0,0,1.6-28.1,0.6-34.9C80.3,168.6,79.3,165.7,79.3,165.7z"/>
<path class="st10" d="M77.3,164.8c0,0-3-1.8-6.1,0"/>
<path class="st10" d="M77.8,166.8c0,0-2.5-1.4-6.8,1.6"/>
<path class="st10" d="M96.6,162.7c0,0-2-1.8-6.4,0.2"/>
<path class="st10" d="M95.2,164.5c0,0-2.9-1.4-5.5,0.7"/>
<path class="st10" d="M88.6,167.3l1.1,36.5"/>
<path class="st10" d="M73.8,136.7c0,0-4.1,2.4-5.7-1.4"/>
<path class="st10" d="M69.7,137.2c0,0-1.9,14.8-1.4,24.6"/>
<path class="st6" d="M82,60.6c0,0-1.3,3.2-5.5,2.7"/>
<path class="st11" d="M76.6,40.8c0,0-2,2.8-2.2,4.5c-0.1,1.7,2.5,3.3,2.9,4.3c0.4,1-0.3,3.2,0.1,3.8c0.4,0.6,0.5,1.4,0.5,1.4  l0.1,2.2l1.4,0.3c0,0,1.4-3.9,2.4-4.2c1-0.3,2,1.5,2.4,2.4c0.4,0.9,1.5,3.3,1.5,3.3s4.5,1.1,5.3,0.9c0.9-0.3,5-8.3,5.1-12.4  c0.1-4.1-2.7-8.1-5.6-9.4C87.8,36.6,82.1,35.4,76.6,40.8z"/>
<path class="st5" d="M78.6,54.3c0,0,0.5-2.2,2.4-1.2c1.9,1-0.3,6.3-1.9,5.9C77.6,58.7,78.3,55.1,78.6,54.3z"/>
<path class="st12" d="M77.3,40.1c0,0-0.1-3.4,3.9-6c4.1-2.5,10.7,1.3,11.6,3.3c0.9,2,3.7,4.7,4.2,7.4c0.5,2.7-1.3,9.3-3.2,11.1  c-0.6,0.5-0.6-0.9-0.6-0.9s-1.3,1.4-2,1.8s-2-2.3-2-2.3s-0.6,1-1.5,1.5c-0.9,0.5-1.3-3.1-1.3-3.1s-0.8-3.8-2.3-5.6  C82.5,45.6,78,41.9,77.3,40.1z"/>
<path class="st13" d="M54.9,80.7c3.1-2.5,3.1-5.2,3.1-5.2s1.1,2.1,0.6,4"/>
<path class="st14" d="M225.5,92.2h-94c-4.2,0-7.6-3.4-7.6-7.6V38c0-4.2,3.4-7.6,7.6-7.6h94c4.2,0,7.6,3.4,7.6,7.6v46.6  C233.1,88.8,229.7,92.2,225.5,92.2z"/>
<path class="st2" d="M232.1,96.5H124.9c-4.8,0-8.7-3.9-8.7-8.7V34.7c0-4.8,3.9-8.7,8.7-8.7h107.1c4.8,0,8.7,3.9,8.7,8.7v53.1  C240.8,92.6,236.9,96.5,232.1,96.5z"/>
<path class="st15" d="M231.2,62.5c0.6-11-7.8-20.5-18.9-21.1c-11-0.6-20.5,7.8-21.1,18.9c-0.6,11,7.8,20.5,18.9,21.1  C221.1,81.9,230.6,73.5,231.2,62.5z"/>
<path class="st16" d="M211.4,69.5c5.3,0,9.5-4.3,9.5-9.5c0-5.3-4.3-9.5-9.5-9.5s-9.5,4.3-9.5,9.5C201.8,65.2,206.1,69.5,211.4,69.5z  "/>
<path class="st17" d="M227.3,84.3c-0.4-8.5-7.5-15.3-16.1-15.3c-8.6,0-15.7,6.8-16.1,15.3H227.3z"/>
<path class="st18" d="M216.4,71.3c0,2.9-2.3,5.2-5.2,5.2c-2.9,0-5.2-2.3-5.2-5.2c0-2.9,2.3-5.2,5.2-5.2  C214.1,66.1,216.4,68.4,216.4,71.3z"/>
<path class="st18" d="M222,62.2c0,1.2-1,2.1-2.1,2.1c-1.2,0-2.1-1-2.1-2.1c0-1.2,1-2.1,2.1-2.1C221.1,60.1,222,61,222,62.2z"/>
<path class="st18" d="M204.2,62.2c0,1.2-1,2.1-2.1,2.1c-1.2,0-2.1-1-2.1-2.1c0-1.2,1-2.1,2.1-2.1C203.3,60.1,204.2,61,204.2,62.2z"/>
<path class="st19" d="M219.6,62.2c0,4.7-3.8,8.4-8.4,8.4s-8.4-3.8-8.4-8.4s3.8-8.4,8.4-8.4C215.8,53.8,219.6,57.5,219.6,62.2z"/>
<path class="st16" d="M220.1,59.3c-0.9,2.8-4.8,4-8.6,2.7c-3.8-1.3-6.2-4.6-5.2-7.4c0.9-2.8,4.8-4,8.6-2.7  C218.7,53.2,221,56.5,220.1,59.3z"/>
<path class="st15" d="M178,89.7h-44.1c-3.9,0-7-3.1-7-7c0-3.9,3.1-7,7-7H178c3.9,0,7,3.1,7,7C185,86.5,181.9,89.7,178,89.7z"/>
<path class="st20" d="M137.3,84.5l-1.7,0.9c-0.2,0.1-0.3-0.1-0.3-0.2l0.3-1.9c0-0.1,0-0.1-0.1-0.2l-1.3-1.3  c-0.1-0.1-0.1-0.3,0.1-0.4l1.9-0.3c0.1,0,0.1-0.1,0.2-0.1l0.8-1.7c0.1-0.2,0.3-0.2,0.4,0l0.8,1.7c0,0.1,0.1,0.1,0.2,0.1l1.9,0.3  c0.2,0,0.2,0.2,0.1,0.4l-1.3,1.3c-0.1,0.1-0.1,0.1-0.1,0.2l0.3,1.9c0,0.2-0.2,0.3-0.3,0.2l-1.7-0.9  C137.5,84.5,137.4,84.5,137.3,84.5z"/>
<path class="st20" d="M146.6,84.5l-1.7,0.9c-0.2,0.1-0.3-0.1-0.3-0.2l0.3-1.9c0-0.1,0-0.1-0.1-0.2l-1.3-1.3  c-0.1-0.1-0.1-0.3,0.1-0.4l1.9-0.3c0.1,0,0.1-0.1,0.2-0.1l0.8-1.7c0.1-0.2,0.3-0.2,0.4,0l0.8,1.7c0,0.1,0.1,0.1,0.2,0.1l1.9,0.3  c0.2,0,0.2,0.2,0.1,0.4l-1.3,1.3c-0.1,0.1-0.1,0.1-0.1,0.2l0.3,1.9c0,0.2-0.2,0.3-0.3,0.2l-1.7-0.9  C146.8,84.5,146.7,84.5,146.6,84.5z"/>
<path class="st20" d="M155.9,84.5l-1.7,0.9c-0.2,0.1-0.3-0.1-0.3-0.2l0.3-1.9c0-0.1,0-0.1-0.1-0.2l-1.3-1.3  c-0.1-0.1-0.1-0.3,0.1-0.4l1.9-0.3c0.1,0,0.1-0.1,0.2-0.1l0.8-1.7c0.1-0.2,0.3-0.2,0.4,0L157,81c0,0.1,0.1,0.1,0.2,0.1l1.9,0.3  c0.2,0,0.2,0.2,0.1,0.4l-1.3,1.3c-0.1,0.1-0.1,0.1-0.1,0.2l0.3,1.9c0,0.2-0.2,0.3-0.3,0.2l-1.7-0.9C156.1,84.5,156,84.5,155.9,84.5z  "/>
<path class="st20" d="M165.2,84.5l-1.7,0.9c-0.2,0.1-0.3-0.1-0.3-0.2l0.3-1.9c0-0.1,0-0.1-0.1-0.2l-1.3-1.3  c-0.1-0.1-0.1-0.3,0.1-0.4l1.9-0.3c0.1,0,0.1-0.1,0.2-0.1l0.8-1.7c0.1-0.2,0.3-0.2,0.4,0l0.8,1.7c0,0.1,0.1,0.1,0.2,0.1l1.9,0.3  c0.2,0,0.2,0.2,0.1,0.4l-1.3,1.3c-0.1,0.1-0.1,0.1-0.1,0.2l0.3,1.9c0,0.2-0.2,0.3-0.3,0.2l-1.7-0.9  C165.4,84.5,165.3,84.5,165.2,84.5z"/>
<path class="st21" d="M174.5,84.5l-1.7,0.9c-0.2,0.1-0.3-0.1-0.3-0.2l0.3-1.9c0-0.1,0-0.1-0.1-0.2l-1.3-1.3  c-0.1-0.1-0.1-0.3,0.1-0.4l1.9-0.3c0.1,0,0.1-0.1,0.2-0.1l0.8-1.7c0.1-0.2,0.3-0.2,0.4,0l0.8,1.7c0,0.1,0.1,0.1,0.2,0.1l1.9,0.3  c0.2,0,0.2,0.2,0.1,0.4l-1.3,1.3c-0.1,0.1-0.1,0.1-0.1,0.2l0.3,1.9c0,0.2-0.2,0.3-0.3,0.2l-1.7-0.9  C174.7,84.5,174.6,84.5,174.5,84.5z"/>
<path class="st22" d="M131.3,47.6h32.1"/>
<path class="st22" d="M131.3,66.2h41"/>
<path class="st22" d="M131.3,56.6h14"/>
<path class="st22" d="M152.9,56.6h28.5"/>
<path class="st23" d="M206.2,35.5h19.7"/>
<path class="st14" d="M219,160.2h-80.9c-3.6,0-6.6-2.9-6.6-6.6v-40.1c0-3.6,2.9-6.6,6.6-6.6H219c3.6,0,6.6,2.9,6.6,6.6v40.1  C225.5,157.3,222.6,160.2,219,160.2z"/>
<path class="st24" d="M224.6,164h-92.2c-4.1,0-7.5-3.4-7.5-7.5v-45.7c0-4.1,3.4-7.5,7.5-7.5h92.2c4.1,0,7.5,3.4,7.5,7.5v45.7  C232.1,160.6,228.7,164,224.6,164z"/>
<path class="st15" d="M206.7,150.9c9.5,0,17.2-7.7,17.2-17.2c0-9.5-7.7-17.2-17.2-17.2s-17.2,7.7-17.2,17.2  C189.4,143.2,197.1,150.9,206.7,150.9z"/>
<path class="st17" d="M212.6,138.2c3.2-3.2,3.2-8.4,0-11.6c-3.2-3.2-8.4-3.2-11.6,0c-3.2,3.2-3.2,8.4,0,11.6  C204.2,141.4,209.4,141.4,212.6,138.2z"/>
<path class="st17" d="M220.5,153.4c-0.4-7.4-6.4-13.2-13.9-13.2c-7.4,0-13.5,5.9-13.9,13.2H220.5z"/>
<path class="st2" d="M211.2,142.3c0,2.5-2,4.5-4.5,4.5c-2.5,0-4.5-2-4.5-4.5c0-2.5,2-4.5,4.5-4.5  C209.1,137.8,211.2,139.8,211.2,142.3z"/>
<path class="st24" d="M216,134.4c0,1-0.8,1.8-1.8,1.8c-1,0-1.8-0.8-1.8-1.8c0-1,0.8-1.8,1.8-1.8C215.2,132.6,216,133.4,216,134.4z"/>
<path class="st24" d="M200.7,134.4c0,1-0.8,1.8-1.8,1.8s-1.8-0.8-1.8-1.8c0-1,0.8-1.8,1.8-1.8S200.7,133.4,200.7,134.4z"/>
<path class="st24" d="M208.3,141.5c3.9-0.9,6.3-4.8,5.4-8.7c-0.9-3.9-4.8-6.3-8.7-5.4c-3.9,0.9-6.3,4.8-5.4,8.7  C200.5,140,204.4,142.4,208.3,141.5z"/>
<path class="st17" d="M214.3,131.9c-0.8,2.4-4.1,3.4-7.4,2.3c-3.3-1.1-5.3-4-4.5-6.4c0.8-2.4,4.1-3.4,7.4-2.3  C213.1,126.7,215.1,129.5,214.3,131.9z"/>
<path class="st2" d="M178.1,158h-37.9c-3.3,0-6-2.7-6-6c0-3.3,2.7-6,6-6h37.9c3.3,0,6,2.7,6,6C184.1,155.3,181.4,158,178.1,158z"/>
<path class="st15" d="M143,153.6l-1.4,0.8c-0.1,0.1-0.3,0-0.3-0.2l0.3-1.6c0-0.1,0-0.1-0.1-0.2l-1.2-1.1c-0.1-0.1-0.1-0.3,0.1-0.3  l1.6-0.2c0.1,0,0.1,0,0.1-0.1l0.7-1.5c0.1-0.1,0.3-0.1,0.3,0l0.7,1.5c0,0.1,0.1,0.1,0.1,0.1l1.6,0.2c0.2,0,0.2,0.2,0.1,0.3l-1.2,1.1  c0,0-0.1,0.1-0.1,0.2l0.3,1.6c0,0.2-0.1,0.3-0.3,0.2l-1.4-0.8C143.2,153.6,143.1,153.6,143,153.6z"/>
<path class="st15" d="M151.1,153.6l-1.4,0.8c-0.1,0.1-0.3,0-0.3-0.2l0.3-1.6c0-0.1,0-0.1-0.1-0.2l-1.2-1.1c-0.1-0.1-0.1-0.3,0.1-0.3  l1.6-0.2c0.1,0,0.1,0,0.1-0.1l0.7-1.5c0.1-0.1,0.3-0.1,0.3,0l0.7,1.5c0,0.1,0.1,0.1,0.1,0.1l1.6,0.2c0.2,0,0.2,0.2,0.1,0.3l-1.2,1.1  c0,0-0.1,0.1-0.1,0.2l0.3,1.6c0,0.2-0.1,0.3-0.3,0.2l-1.4-0.8C151.2,153.6,151.1,153.6,151.1,153.6z"/>
<path class="st15" d="M159.1,153.6l-1.4,0.8c-0.1,0.1-0.3,0-0.3-0.2l0.3-1.6c0-0.1,0-0.1-0.1-0.2l-1.2-1.1c-0.1-0.1-0.1-0.3,0.1-0.3  l1.6-0.2c0.1,0,0.1,0,0.1-0.1l0.7-1.5c0.1-0.1,0.3-0.1,0.3,0l0.7,1.5c0,0.1,0.1,0.1,0.1,0.1l1.6,0.2c0.2,0,0.2,0.2,0.1,0.3l-1.2,1.1  c0,0-0.1,0.1-0.1,0.2l0.3,1.6c0,0.2-0.1,0.3-0.3,0.2l-1.4-0.8C159.2,153.6,159.1,153.6,159.1,153.6z"/>
<path class="st15" d="M167.1,153.6l-1.4,0.8c-0.1,0.1-0.3,0-0.3-0.2l0.3-1.6c0-0.1,0-0.1-0.1-0.2l-1.2-1.1c-0.1-0.1-0.1-0.3,0.1-0.3  l1.6-0.2c0.1,0,0.1,0,0.1-0.1l0.7-1.5c0.1-0.1,0.3-0.1,0.3,0l0.7,1.5c0,0.1,0.1,0.1,0.1,0.1l1.6,0.2c0.2,0,0.2,0.2,0.1,0.3l-1.2,1.1  c0,0-0.1,0.1-0.1,0.2l0.3,1.6c0,0.2-0.1,0.3-0.3,0.2l-1.4-0.8C167.2,153.6,167.1,153.6,167.1,153.6z"/>
<path class="st15" d="M175.1,153.6l-1.4,0.8c-0.1,0.1-0.3,0-0.3-0.2l0.3-1.6c0-0.1,0-0.1-0.1-0.2l-1.2-1.1c-0.1-0.1-0.1-0.3,0.1-0.3  l1.6-0.2c0.1,0,0.1,0,0.1-0.1l0.7-1.5c0.1-0.1,0.3-0.1,0.3,0l0.7,1.5c0,0.1,0.1,0.1,0.1,0.1l1.6,0.2c0.2,0,0.2,0.2,0.1,0.3l-1.2,1.1  c0,0-0.1,0.1-0.1,0.2l0.3,1.6c0,0.2-0.1,0.3-0.3,0.2l-1.4-0.8C175.2,153.6,175.1,153.6,175.1,153.6z"/>
<path class="st25" d="M137.8,121.9h27.6"/>
<path class="st25" d="M137.8,137.9h35.3"/>
<path class="st25" d="M137.8,129.5h12.1"/>
<path class="st25" d="M156.5,129.5H181"/>
<path class="st26" d="M202.3,111.4h16.9"/>
<path class="st5" d="M294,61.5c0,0,3.7,2,7.5-3.1c-0.1-1.3-5.7-3.4-5.7-3.4L294,61.5z"/>
<path class="st1" d="M297.1,48.5l4.2,11.6l-4.3,2.7l-4.4-12.2L297.1,48.5z"/>
<path class="st27" d="M310.3,39.5l-3.6,3.8l-3.9-6.2l5-1.6L310.3,39.5z"/>
<path class="st27" d="M305.1,40.1l-0.9-1.5l-0.1,0.1l-4.3-6.1l-13.2,16.7l-2.4,1.5l0.2,0.3l1.9,3l0.2,0.3l2.4-1.5l20.7-4.7l-3.6-6.5  l0.2-0.1L305.1,40.1z"/>
<path class="st1" d="M311.5,50c-0.8,0.5-1.8,0.3-2.3-0.5l-10.9-17.3c-0.5-0.8-0.3-1.8,0.5-2.3c0.8-0.5,1.8-0.3,2.3,0.5L312,47.7  C312.5,48.4,312.3,49.5,311.5,50z"/>
<path class="st4" d="M290.4,59.1c0,0-0.7,1.5-0.8,2.2c-0.1,0.8-2,18.5-2,18.5L275.3,72l-3.6,10.7c0,0,16.5,6.1,21.1,6.6  c2.5,0.5,3.2-1.2,3.5-1.4c0.3-0.2-1.1-27.3-1.1-27.3S294.3,56.9,290.4,59.1z"/>
<path class="st28" d="M271.1,68.3l16.5,11l-3.6,13l-14.5-11C269.5,81.3,267,74.4,271.1,68.3z"/>
<path class="st1" d="M257.8,216.1c0,0,4.5,4.7,6.3,5.7c-0.4,0.8-6.9,0.8-9.3-0.4c-2.4-1.2-4.3-4.1-4.3-4.1l0.2,3h-1.2  c0,0-1.2-4.3-1.2-5.3s1.2-2.4,1.2-2.4L257.8,216.1z"/>
<path class="st4" d="M259.7,156.1l-4.5,54.7l-5.3-0.4c0,0-6.1-40.1-3.6-53.9C248.7,142.8,259.7,156.1,259.7,156.1z"/>
<path class="st4" d="M255.2,210.9c0,0,1.6,4.3,3.9,6.3c2.2,2-3.4,2-5.9,0c-2.4-2-2.6-3.2-3.4-3.6c-0.8-0.4,0.2-3,0.2-3L255.2,210.9z  "/>
<path class="st1" d="M294.4,215.2c0,0,5.2,3.8,7.1,4.5c-0.3,0.9-6.7,2-9.3,1.2c-2.6-0.8-4.9-3.3-4.9-3.3l0.7,3l-1.2,0.2  c0,0-1.9-4-2.1-5c-0.2-1,0.8-2.6,0.8-2.6L294.4,215.2z"/>
<path class="st4" d="M286.1,155.8l4.8,54.7l-5.3,0.5c0,0-12.8-38.5-12.7-52.5C273.1,144.4,286.1,155.8,286.1,155.8z"/>
<path class="st4" d="M290.9,210.5c0,0,2.3,3.9,4.9,5.5c2.5,1.6-3.1,2.6-5.8,1c-2.7-1.6-3.1-2.8-4-3c-0.9-0.3-0.3-3-0.3-3  L290.9,210.5z"/>
<path class="st1" d="M280.2,109.1l0.3,6.3c0,0,4.1,8.7,5.4,18.1c1.3,9.4,1.8,28.3,1.8,28.3l2.8,34.1c0,0-5.6,2-10.2,0.8  c0,0-5.6-19.1-7.1-25.7c-1.5-6.6-1.3-19.4-1.3-19.4l-4.6-17.8c0,0-6.6,26-6.9,29.5c-0.3,3.6-3.3,33.9-3.3,33.9s-4.3,1.3-9.7-0.3  c0,0-3.1-27.5-2.8-42.8c0.5-11.5,1.3-17.3,1.3-17.3s-2.3-5.9,0.8-17.1c2.8-6.4,4.6-7.9,4.6-7.9l1.7-3.5L280.2,109.1z"/>
<path class="st28" d="M259.1,65.5c0,0-9.3,5.3-11.4,8.7c-2.1,3.3-8.5,21.4-8.5,21.4s7.1,2.6,13.4,2.6c0,0-0.6,5.8-1.2,7.6  c-0.6,1.8,1.5,2.6,1.5,2.6s14.9,4.1,26,1.7c0,0,1.4-0.3,1.4-0.9c0-0.6-0.2-2.1-0.2-2.1s1.1-10.3,1.4-12.2c0.3-1.8,3.6-6.8,3.3-8.8  c-0.3-2-5.5-11.1-5.5-11.1s-3.5-4.1-5-5.2c-1.5-1.1-5.8-2.5-5.8-2.5L259.1,65.5z"/>
<path class="st4" d="M269.6,62.1c0,0.2-0.9,5.4,2,9c2.9,3.7-8.4,3.6-11-0.2c-2.4-3.4-2.1-4-2.1-4s1.9-6.2,1.3-10.2  C260,53.1,269.8,55.3,269.6,62.1z"/>
<path class="st29" d="M258.5,80.8l-4.7,16.6"/>
<path class="st29" d="M279.9,76c0,0,5,8.2,4.9,10.1c0,1.9-3.2,7.4-3.2,7.4l-4,10.3"/>
<path class="st4" d="M261.3,123.3c0,0,2.5,2.8,3.3,3.4c0.8,0.6,5.9,1.1,5.9,1.1s2.3,3.8,2.9,3.6c0.6-0.2,0.5-0.6,0.5-0.6  s0.2-6.8-0.3-7.6c-0.5-0.8-7.9-2.9-7.9-2.9l-0.9-1.1L261.3,123.3z"/>
<path class="st4" d="M241.4,96.3c-0.2,0.6-1.8,5.4-2.6,7.8c-0.8,2.4,17.4,15.2,20.3,17.4l2.2,1.8l3.4-4.1l-16-16l2.3-5.3L241.4,96.3  z"/>
<path class="st30" d="M273.4,131.4l-1-4.3"/>
<path class="st30" d="M274,127.6l-1.1-2.4"/>
<path class="st30" d="M273.5,123.2l0.4,8.2h-1.3l-2.1-3.6"/>
<path class="st31" d="M253.9,44c0,0,0.4-3.8-3.2-3.9c-3.6-0.1-6.3,6.2-3.6,8.6c2.2,2.1,3.4,0.9,3.4,0.9s-1,3.2-0.2,4.4  c0.5,0.4,0.5-2.8,1.9-4.4C253.6,48,253.9,44,253.9,44z"/>
<path class="st4" d="M265.7,40.2c0,0,3.4,0.2,6.1,4.8c2.8,4.6,3.5,15.4,2.5,16.8c-1,1.5-4.8,1.7-10.2,1c-5.8-0.8-8.7-6.1-10.3-9.6  C250.6,46.4,255.4,37.9,265.7,40.2z"/>
<path class="st31" d="M256.8,40.6c0,0,10.2-4.2,17.1,2.5c4,5.3-1.2,7.6-2.3,7.9c-1.1,0.3,0.1-1.7,0.1-1.7s-2.9,2.5-6.7,3.2  c-3.9,0.7-0.4-1.4-0.4-1.4s-2.7,1.3-3.5,1.4c-0.8,0.1,1.2,4.4,1,5.5c-0.3,1.1-3.2-4.1-3.2-4.1l-0.2,3.3l0.5,3.4c0,0-5-2.7-6.8-5.9  C250.7,51.7,249.7,44.5,256.8,40.6z"/>
<path class="st5" d="M259.9,54.7c0,0-1.6-1.7-2.6-0.8c-1.1,0.9,1.7,5.1,3.4,4.8C262.3,58.6,260.8,55.7,259.9,54.7z"/>
<path class="st1" d="M259.2,64.6c0,0,3.6,6.9,10.4,6.9c1.1-1.3,0.1-4.1,0.1-4.1s4,2.7,4,6c0,0,3.4,3.3,4.8,5.7  c-0.3,0.9-3.1,1.1-3.1,1.1s2.4,5.9,2,11c0,0-1.7,1-5.4,0.6c0,0,1.2-17.9-2.3-16.7c-0.4,0.1-4.5,0-8.9-2.3c-4.5-2.3-4.2-6.4-4.2-6.4  s0.6-3.8,2.7-3.8L259.2,64.6z"/>
<path class="st4" d="M298.3,51.3c0,0,3.4-0.6,4.2-0.2c0.8,0.4-0.2,7.1-0.2,7.1l-3.1,1.3L298.3,51.3z"/>
<path class="st4" d="M289.9,60.8c0,0,0.1-0.7,1.5-3.6c1.6-3.2,1.9-4.4,1.9-4.4s4.9-1.9,5.7-2.9c0.8-0.9,1.3-1.1,1.3-1.1  s0.9,1.7-0.5,3c-1.4,1.3-2.7,2.2-2.7,2.2s0.2,3.7-0.3,5.4c-0.5,1.7-1.9,2.6-1.9,2.6L289.9,60.8z"/>
<path class="st30" d="M299,52.6l-1.9,1.5l-1.4-0.4"/>
<path class="st30" d="M298.3,53.1l0.9,6.5l3.1-1.3"/>
<path class="st30" d="M298.9,58.3l2.8-1.9"/>
<path class="st30" d="M298.6,56.2l3-1.8"/>
<path class="st30" d="M298.6,53.9l2.5-1.5"/>
<path class="st32" d="M263.9,115.4c0,0,6.1,1.8,13.5,0.5"/>
<path class="st33" d="M251.8,46.9c0,0,1-6.5,9.2-7.6"/>
<path class="st33" d="M252.2,44.8c0,0,0-1.5-2.7-2.3"/>
<path class="st33" d="M251.7,49.6c0,0-0.8,4.4,2.3,7.1"/>
</svg>