<?xml version="1.0" encoding="UTF-8"?>
<!-- Generator: Adobe Illustrator 26.0.3, SVG Export Plug-In . SVG Version: 6.00 Build 0)  -->
<svg version="1.1" id="Layer_1" xmlns="http://www.w3.org/2000/svg" xmlns:xlink="http://www.w3.org/1999/xlink" x="0px" y="0px" viewBox="0 0 359 250" style="enable-background:new 0 0 359 250;" xml:space="preserve">
<style type="text/css">
	.st0{fill:#546E7A;}
	.st1{fill:#78909C;}
	.st2{fill:#ECEFF1;}
	.st3{fill:#FFE0B2;filter:url(#Adobe_OpacityMaskFilter);}
	.st4{mask:url(#mask0_16483_28824_00000012432694928927779790000000928303234848282297_);}
	.st5{fill:#FFCCBC;}
	.st6{fill:url(#SVGID_1_);}
	.st7{fill:#6D4C41;}
	.st8{fill:url(#SVGID_00000108277684378007359740000007209308137116260267_);}
	.st9{fill:#FFAB91;}
	.st10{fill:#263238;}
	.st11{fill:#EF9A9A;filter:url(#Adobe_OpacityMaskFilter_00000013177388041679653280000012558084970123708809_);}
	.st12{mask:url(#mask1_16483_28824_00000163030792154974908580000017132981995505907618_);}
	.st13{fill:#37474F;}
	.st14{fill:url(#SVGID_00000052085119844405939780000011373196256290967733_);}
	.st15{fill:url(#SVGID_00000167358842282991943270000014487922265773419186_);}
	.st16{fill:none;}
	.st17{fill:url(#SVGID_00000159469656879584164030000012547212782882610845_);}
	.st18{fill:#EF9A9A;}
	.st19{fill:#FFFFFF;}
	.st20{fill:#A4ACE3;}
	.st21{opacity:0.2;}
	.st22{fill:#FFF6F3;}
	.st23{fill:#F2AC57;}
	.st24{fill:#9FA8DA;filter:url(#Adobe_OpacityMaskFilter_00000072276816749978714820000001444578413887984061_);}
	.st25{mask:url(#mask2_16483_28824_00000121961627284631213320000017183866588480536706_);}
	.st26{fill:url(#SVGID_00000131325425454092210410000009681619678294757809_);}
	.st27{fill:url(#SVGID_00000066499268087553034800000000333205364473429675_);}
	.st28{fill:#FDD835;}
	.st29{fill:url(#SVGID_00000165206606481327393580000003406376632024638862_);}
	.st30{fill:#9FA8DA;}
	.st31{fill:#FFE0B2;}
	.st32{fill:url(#SVGID_00000064349196036236600080000008609509746554598284_);}
	.st33{fill:#E65100;}
	.st34{fill:url(#SVGID_00000024691279501867718500000013098518441683965326_);}
	.st35{fill:url(#SVGID_00000158710569867250765630000012058589479696157625_);}
	.st36{fill:url(#SVGID_00000029039788189188246850000016397625260596734356_);}
	.st37{fill:url(#SVGID_00000067197268369618117990000017968391445456929684_);}
	.st38{fill:url(#SVGID_00000081620773926166417780000014673324369783169193_);}
	.st39{fill:url(#SVGID_00000073721577532988657180000016389703958076314025_);}
	.st40{fill:url(#SVGID_00000093173664955476042060000003076488247893003395_);}
	.st41{fill:url(#SVGID_00000097486089002284220560000000864468253832898975_);}
	.st42{fill:url(#SVGID_00000028304363940084734860000000286654517297822652_);}
	.st43{fill:url(#SVGID_00000068674172013883454970000000118645995956656544_);}
</style>
<path class="st0" d="M269.2,214.9H138.6c-4.8,0-8.7-3.9-8.7-8.7V28.7c0-4.8,3.9-8.7,8.7-8.7h130.6c4.8,0,8.7,3.9,8.7,8.7v177.6  C277.9,211,274,214.9,269.2,214.9z"/>
<path class="st1" d="M216.8,23.9H191v1.9h25.9V23.9z"/>
<path class="st1" d="M213.7,212.2h-19.6c-1.7,0-3.2-1.4-3.2-3.2c0-1.7,1.4-3.2,3.2-3.2h19.6c1.7,0,3.2,1.4,3.2,3.2  C216.8,210.8,215.4,212.2,213.7,212.2z"/>
<path class="st2" d="M277.9,31h-148v172.9h148V31z"/>
<defs>
	<filter id="Adobe_OpacityMaskFilter" filterUnits="userSpaceOnUse" x="141.5" y="154.4" width="32.6" height="56.2">
		<feColorMatrix type="matrix" values="1 0 0 0 0  0 1 0 0 0  0 0 1 0 0  0 0 0 1 0"/>
	</filter>
</defs>
<mask maskUnits="userSpaceOnUse" x="141.5" y="154.4" width="32.6" height="56.2" id="mask0_16483_28824_00000012432694928927779790000000928303234848282297_">
	<path class="st3" d="M165.9,197.7c12.1-5,17.9-18.9,12.8-31c-5-12.1-18.9-17.9-31-12.8c-12.1,5-17.9,18.9-12.8,31   C139.9,196.9,153.8,202.7,165.9,197.7z"/>
</mask>
<g class="st4">
	<path class="st5" d="M167.3,178.9l-5.4,12.6c-0.2-1.7-0.4-3.8-0.5-4.7c-2.2,0.5-4.6,1.1-6.8,2.1c0.9,3,4.1,10.5,6.7,10.5   c6.5,0.1,8-20,8-20L167.3,178.9z"/>
	
		<linearGradient id="SVGID_1_" gradientUnits="userSpaceOnUse" x1="163.2193" y1="67.062" x2="159.7643" y2="68.141" gradientTransform="matrix(1 0 0 -1 0 252)">
		<stop offset="7.575760e-03" style="stop-color:#FFB74D"/>
		<stop offset="1" style="stop-color:#FFA14D"/>
	</linearGradient>
	<path class="st6" d="M154.2,176.6c3.1-2.2,7,0.2,6.8,5.2c0,0,1,4.8,1.1,5.1c-2.2,0.5-5.5,1.6-7.6,2.5   C152.7,184.1,152.1,178.1,154.2,176.6z"/>
	<path class="st5" d="M172,178.8c0.5-0.2,0.9-0.5,1-1c0.1-0.3-0.1-0.7-0.3-0.9c-0.2-0.3-0.5-0.4-0.8-0.6c-0.5-0.3-4.7,1.6-4.7,3   c0,0.4,0.4,0.4,0.8,0.6C169.2,180.5,170.8,179.4,172,178.8z"/>
	<path class="st5" d="M171.8,178.4c0.8,0,1.7-2,1.6-2.7c-0.1-0.4-0.7-0.9-1.2-0.8c-0.1,0.4,0.4,0.4,0.5,0.7c0.1,0.2-0.1,0.4-0.2,0.7   C172.1,177,171.2,177.5,171.8,178.4z"/>
	<path class="st5" d="M171.3,178.7c0.7,0.4,2.5-0.8,2.8-1.5c0.2-0.4-0.2-1.1-0.6-1.3c-0.3,0.3,0.1,0.6,0.1,0.9   c0,0.3-0.3,0.3-0.5,0.4C172.3,177.6,171.3,177.5,171.3,178.7z"/>
	<path class="st5" d="M170.4,178.4c0.7,0.2,2.1-1.5,2.2-2.2c0.1-0.4-0.5-1-0.9-1c-0.2,0.4,0.3,0.5,0.3,0.8c0,0.3-0.2,0.4-0.4,0.6   C171.1,177,170,177.3,170.4,178.4z"/>
	<path class="st5" d="M170.3,177.8c0.6,0.1,1.5-1.2,1.5-1.8c0-0.3-0.4-0.7-0.7-0.7c-0.1,0.3,0.2,0.4,0.3,0.6c0,0.2-0.1,0.3-0.3,0.5   C170.7,176.7,170,177,170.3,177.8z"/>
	<path class="st5" d="M170.5,179.3c-0.2-0.7,2.1-1.2,2.6-1.4c0-0.7-1.5-0.2-1.9-0.2c-0.5,0-0.9-0.4-1.4-0.4c-0.5,0-0.8,0.3-1,0.7   c-0.1,0.1-0.2,0.4-0.4,0.4"/>
	<path class="st7" d="M152.1,170.6c-0.4-1.3-0.7-2.7-1.1-4c-0.2-0.6-0.3-1.2-0.7-1.7c-0.5-0.6-1.3-1.1-1.2-1.9   c0.1-0.7,0.8-1.1,0.9-1.8c0-0.5-0.4-0.8-0.6-1.3c-0.3-0.6-0.3-1.4,0-2c0.3-0.6,1-1,1.7-1.1c0.6-0.1,1.3,0.2,1.9,0   c0.7-0.1,1.2-0.7,1.8-1.1c1-0.8,2.3-1.3,3.5-1.5c1-0.1,2.2,0,2.7,0.9c0.3,0.6,0.3,1.3,0.8,1.7c0.3,0.4,0.8,0.4,1.3,0.7   c0.7,0.3,1.2,1,1.4,1.7c0,0.2,0.1,0.4,0,0.6c-0.1,0.3-0.4,0.5-0.6,0.7c-0.2,0.2-0.3,0.6-0.1,0.8c0.1,0.1,0.2,0.1,0.3,0.1   c0.8,0.3,1.1,1.3,1.3,2.2c0,0.1,0,0.2,0,0.3c-0.1,0.1-0.2,0.2-0.3,0.3c-0.6,0.3-1.5,0.6-1.5,1.3c0,0.2,0,0.3-0.1,0.5   c-0.1,0.1-0.2,0.1-0.3,0.1c-1.2,0.1-2.2-1.4-3.5-1.2c-0.6,0.1-1,0.4-1.4,0.8L152.1,170.6z"/>
	
		<linearGradient id="SVGID_00000071531526635552180090000013357593193327771530_" gradientUnits="userSpaceOnUse" x1="151.6897" y1="60.0213" x2="143.3077" y2="41.7053" gradientTransform="matrix(1 0 0 -1 0 252)">
		<stop offset="7.575760e-03" style="stop-color:#FFB74D"/>
		<stop offset="1" style="stop-color:#FFA14D"/>
	</linearGradient>
	<path style="fill:url(#SVGID_00000071531526635552180090000013357593193327771530_);" d="M153.6,172.3c-5.9,0-11.3,4.8-12.1,10.7   l1,21.6c0.1,1.6-0.7,3.3,0.4,4.4c3.8,3.3,15.3,0.2,15.3,0.2c1.4-0.5,0.1-2.7,0.2-4.1l1.7-20.3C160.8,180.2,158.1,172.3,153.6,172.3   z"/>
	<path class="st5" d="M151.9,168.6l-1,4.4l4.9,3.7l1-0.7l0.3-4.8L151.9,168.6z"/>
	<path class="st9" d="M157.1,171.3l-5.3-2.7l-0.3,1.3l5.4,4.3L157.1,171.3z"/>
	<path class="st5" d="M160.6,170.6l-0.1-10.5h-6.4l-0.2,2.6l-0.6,0.7l-0.5,2.9l-0.6,0l0-0.7c0-0.6-0.5-1-1.1-1c0,0,0,0,0,0   c-0.6,0-1,0.5-1,1.1v0.7c0,0.6,0.5,1,1.1,1c0.4,0,0.7,0.3,0.7,0.7v1c0,1.5,8.3,4.7,8.7,2C160.6,171,160.6,170.8,160.6,170.6z"/>
	<path class="st10" d="M160.5,163.3H159c-0.4,0-0.7,0.3-0.8,0.7h-0.3c-0.1-0.4-0.4-0.7-0.8-0.7h-1.7c-0.4,0-0.7,0.3-0.8,0.7h-2.7   c-0.7,0-1.4,0.3-2,0.7l-0.1,0.1c-0.1,0.1-0.1,0.2,0,0.3c0.1,0.1,0.2,0.1,0.3,0l0.1-0.1c0.5-0.4,1.1-0.6,1.7-0.6h2.7l0,0.3   c0,0.9,0.8,1.6,1.7,1.6h0.2c0.8,0,1.5-0.7,1.5-1.5v-0.5h0.3l0,0.3c0,0.9,0.7,1.6,1.5,1.6h0.2c0.7,0,1.3-0.7,1.3-1.5v-0.7   C161.3,163.7,160.9,163.3,160.5,163.3z M157.5,164.8c0,0.6-0.5,1.1-1.1,1.1h-0.2c-0.7,0-1.3-0.6-1.3-1.3l0-0.5   c0-0.2,0.2-0.4,0.4-0.4h1.7c0.3,0,0.5,0.2,0.5,0.5L157.5,164.8L157.5,164.8z M160.9,164.8c0,0.6-0.4,1.1-0.9,1.1h-0.2   c-0.6,0-1.1-0.6-1.2-1.3l0-0.5c0-0.2,0.2-0.4,0.4-0.4h1.5c0.2,0,0.4,0.2,0.4,0.5V164.8z"/>
	<path class="st5" d="M142.9,185.9l6.8,0.7l-1.3,13.4l-5.5-0.5V185.9z"/>
</g>
<defs>
	
		<filter id="Adobe_OpacityMaskFilter_00000019642720545919202430000013858919901560022205_" filterUnits="userSpaceOnUse" x="145.7" y="45" width="25.2" height="50.8">
		<feColorMatrix type="matrix" values="1 0 0 0 0  0 1 0 0 0  0 0 1 0 0  0 0 0 1 0"/>
	</filter>
</defs>
<mask maskUnits="userSpaceOnUse" x="145.7" y="45" width="25.2" height="50.8" id="mask1_16483_28824_00000163030792154974908580000017132981995505907618_">
	<path style="fill:#EF9A9A;filter:url(#Adobe_OpacityMaskFilter_00000019642720545919202430000013858919901560022205_);" d="   M180.2,69.6c2.1-12.9-6.7-25.1-19.6-27.2c-12.9-2.1-25.1,6.7-27.2,19.6c-2.1,12.9,6.7,25.1,19.6,27.2   C165.9,91.3,178.1,82.5,180.2,69.6z"/>
</mask>
<g class="st12">
	<path class="st13" d="M162,49c1.4,1.8,2.5,4.2,1.7,6.4c-0.4,0.9-1,1.7-1.2,2.7c-0.4,1.9,1,3.7,1.3,5.6c0.2,1.4-0.3,2.8-1.1,4   c-0.8,1.2-2,2-3.2,2.8c-1.4,0.8-2.9,1.4-4.6,1.5c-1.4,0.1-2.7-0.3-4-0.6c-1.2-0.3-2.5-0.7-3.4-1.5c-0.8-0.7-1.2-1.8-1.4-2.8   c-0.1-0.5-0.3-1.1-0.1-1.6c0.1-0.5,0.3-0.9,0.5-1.3c1.3-2.9,0.5-6.2,0.7-9.4c0.1-2.4,0.9-4.8,2.4-6.6c1.5-1.8,3.9-3,6.2-2.9   c0.6,0,1.3,0.2,1.8,0.5c0.5,0.3,0.7,0.8,1.1,1.1c0.5,0.3,1.2,0.3,1.7,0.7C161,47.8,161.5,48.4,162,49z"/>
	
		<linearGradient id="SVGID_00000014595007799004188200000006988840724314539678_" gradientUnits="userSpaceOnUse" x1="157.165" y1="177.6149" x2="167.56" y2="177.6149" gradientTransform="matrix(1 0 0 -1 0 252)">
		<stop offset="0" style="stop-color:#E573D6"/>
		<stop offset="1" style="stop-color:#E57373"/>
	</linearGradient>
	<path style="fill:url(#SVGID_00000014595007799004188200000006988840724314539678_);" d="M157.2,66.8l10.4,11.2l-0.6,3.9l-8.7-5.6   L157.2,66.8z"/>
	
		<linearGradient id="SVGID_00000102524043753493339500000009612752373000189612_" gradientUnits="userSpaceOnUse" x1="153.3566" y1="182.4049" x2="157.5666" y2="139.5346" gradientTransform="matrix(1 0 0 -1 0 252)">
		<stop offset="0" style="stop-color:#E573D6"/>
		<stop offset="1" style="stop-color:#E57373"/>
	</linearGradient>
	<path style="fill:url(#SVGID_00000102524043753493339500000009612752373000189612_);" d="M150.3,84.6c0,1-2.7,5.8-3.9,8.5   c1.4,1.6,4.8,2.7,7.5,2.8c2.3,0.1,5.1,0.1,7.4-0.8l-1.1-13.8c0,0,5-1.5,2.7-5.3c-2.2-3.5-5.7-10.6-8-10.6c-0.6-0.7-1.5-1-2.4-0.9   c-2.8,0.2-3.6,0.3-5.1,2.5c-1,1.4-1.6,5,0.4,10.4L150.3,84.6z"/>
	<path class="st5" d="M152,59.4l-0.6,5.1l6.9,9.7l-2.4-7.9l0.6-3.9L152,59.4z"/>
	<path class="st9" d="M156.4,62.4l-4.4-3l-0.3,2l4.3,3.4L156.4,62.4z"/>
	<path class="st5" d="M158.3,74.2l-2.4-7.9l0.2-1.5l-4.3-3.4l-0.4,3L158.3,74.2z"/>
	<path class="st5" d="M159.8,52.9c0,1.4-0.4,2.7-1.7,3.7c-1,0.8-4.2,1.9-5.8,0.7c0,0,0-0.1,0-0.1h0l0-0.7c0-0.6-0.4-1-1-1.1h0   c-0.6,0-1,0.4-1.1,0.9l-0.1,0.8c-0.1,0.6,0.4,1.1,1,1.1c0.4,0,0.6,0.4,0.6,0.7l0,0.4c-0.1,1.5,6.5,5.3,7.2,3.8   c0.1-0.1,1.3-4.1,1.6-7.3c0.1-0.8,0-1.8,0-2.7C160.3,53.1,160,52.9,159.8,52.9z"/>
	<path class="st5" d="M168.8,65.4l0.9,13.7c0.4,2.3-2,3.8-3.6,2.4c-0.5-0.5-0.7-1.2-0.6-1.9c0.9-7.4,1.5-13.9,1.5-13.9L168.8,65.4z"/>
	<path class="st5" d="M169.3,64.2c0.2-0.4,0.3-1,0-1.4c-0.2-0.3-0.5-0.4-0.8-0.4s-0.6,0-0.9,0.1c-0.6,0.1-1.7,2.2-0.8,3.1   c0.3,0.3,0.8,1.6,1.2,1.5C168,67,168.9,65.4,169.3,64.2z"/>
	<path class="st5" d="M169,64.1c0.7-0.2,0.8-4.2,0.5-4c-0.4,0-0.4,1.7-0.5,1.9C168.8,62.7,168.2,63.4,169,64.1z"/>
	<path class="st5" d="M168.9,64.1c0.5-0.5-0.2-2.4-0.7-2.9c-0.3-0.2-1.1-0.1-1.3,0.2c0.2,0.3,0.5,0,0.8,0.1c0.2,0.1,0.2,0.3,0.3,0.6   C168.2,62.9,167.9,63.8,168.9,64.1z"/>
	<path class="st5" d="M167.9,64.9c0.6-0.4,0.4-2.4,0-2.9c-0.2-0.3-1-0.4-1.3-0.1c0.1,0.4,0.5,0.2,0.7,0.3c0.2,0.1,0.1,0.4,0.1,0.7   C167.5,63.6,167,64.4,167.9,64.9z"/>
	<path class="st5" d="M167.5,64.6c0.4-0.3,0.2-1.8-0.1-2.2c-0.2-0.2-0.8-0.2-1,0c0.1,0.3,0.4,0.1,0.6,0.2c0.2,0.1,0.1,0.3,0.1,0.5   C167.1,63.6,166.8,64.3,167.5,64.6z"/>
	<path class="st5" d="M150.3,86l14.3-0.9l0.4-1.8l-13.8-2L150.3,86z"/>
	<path class="st5" d="M167.4,81.7c0.4-0.2,0.9-0.5,1.3-0.3c0.3,0.1,0.5,0.4,0.6,0.7c0.1,0.3,0.1,0.6,0.1,0.9c0,0.6-3.7,2.8-4.8,2   c-0.3-0.2-0.1-0.6-0.1-0.9C164.6,83,166.3,82.3,167.4,81.7z"/>
	<path class="st5" d="M168.2,81.4c0.6-0.3,2.3,0.8,2.6,1.4c0.2,0.4-0.2,1.1-0.5,1.2c-0.3-0.3,0.1-0.5,0.1-0.8c0-0.2-0.3-0.3-0.5-0.4   C169.2,82.4,168.2,82.5,168.2,81.4z"/>
	<rect x="167.2" y="81.7" class="st16" width="3.7" height="3.7"/>
	<path class="st5" d="M167.2,82.7c0.6-0.3,2.3,0.8,2.6,1.4c0.2,0.4-0.2,1.1-0.5,1.2c-0.3-0.3,0.1-0.5,0.1-0.8c0-0.2-0.3-0.3-0.5-0.4   C168.2,83.7,167.2,83.8,167.2,82.7z"/>
	<path class="st5" d="M167.3,83.4c0.4-0.3,1.7,0.6,1.9,1c0.1,0.3-0.1,0.8-0.4,0.9c-0.2-0.2,0.1-0.4,0-0.6c0-0.2-0.2-0.2-0.4-0.3   C168,84.1,167.3,84.1,167.3,83.4z"/>
	
		<linearGradient id="SVGID_00000060740066335277647890000017830040395333151371_" gradientUnits="userSpaceOnUse" x1="148.1115" y1="181.6127" x2="150.6675" y2="155.5832" gradientTransform="matrix(1 0 0 -1 0 252)">
		<stop offset="0" style="stop-color:#E573D6"/>
		<stop offset="1" style="stop-color:#E57373"/>
	</linearGradient>
	<path style="fill:url(#SVGID_00000060740066335277647890000017830040395333151371_);" d="M146.6,69.5L145.7,86l6.3,0.1l0.4-4.6   l-1.1-0.4l0.6-11.3c0.1-1.5-1.1-2.8-2.7-2.8C147.9,67,146.7,68.1,146.6,69.5z"/>
</g>
<path class="st18" d="M234,51.5h-46.7v4H234V51.5z"/>
<path class="st0" d="M272.1,62.8h-84.7v2h84.7V62.8z"/>
<path class="st0" d="M272.1,67.8h-84.7v2h84.7V67.8z"/>
<path class="st0" d="M272.1,72.9h-84.7v2h84.7V72.9z"/>
<path class="st0" d="M256.2,78h-68.9v2h68.9V78z"/>
<path class="st19" d="M222.7,84h-33.3c-0.7,0-1.3,0.6-1.3,1.3v6.6c0,0.7,0.6,1.3,1.3,1.3h33.3c0.7,0,1.3-0.6,1.3-1.3v-6.6  C224,84.6,223.4,84,222.7,84z"/>
<path class="st20" d="M220,86.3l0.8,1.6l1.7,0.3l-1.3,1.2l0.3,1.7l-1.6-0.8l-1.6,0.8l0.3-1.7l-1.3-1.2l1.7-0.3L220,86.3z"/>
<g class="st21">
	<g class="st21">
		<path class="st22" d="M220.7,87.8l-1.7,2.9l0,0l-0.6,0.3l0.3-1.7l-1.3-1.2l1.7-0.2l0.8-1.6L220.7,87.8z"/>
	</g>
</g>
<path class="st23" d="M213,86.3l0.8,1.6l1.7,0.3l-1.3,1.2l0.3,1.7l-1.6-0.8l-1.6,0.8l0.3-1.7l-1.3-1.2l1.7-0.3L213,86.3z"/>
<g class="st21">
	<g class="st21">
		<path class="st22" d="M213.8,87.8l-1.7,2.9l0,0l-0.6,0.3l0.3-1.7l-1.3-1.2l1.7-0.2l0.8-1.6L213.8,87.8z"/>
	</g>
</g>
<path class="st23" d="M206,86.3l0.8,1.6l1.7,0.3l-1.3,1.2l0.3,1.7l-1.6-0.8l-1.6,0.8l0.3-1.7l-1.3-1.2l1.7-0.3L206,86.3z"/>
<g class="st21">
	<g class="st21">
		<path class="st22" d="M206.8,87.8l-1.7,2.9l0,0l-0.6,0.3l0.3-1.7l-1.3-1.2l1.7-0.2l0.8-1.6L206.8,87.8z"/>
	</g>
</g>
<path class="st23" d="M199,86.3l0.8,1.6l1.7,0.3l-1.3,1.2l0.3,1.7l-1.6-0.8l-1.6,0.8l0.3-1.7l-1.3-1.2l1.7-0.3L199,86.3z"/>
<g class="st21">
	<g class="st21">
		<path class="st22" d="M199.8,87.8l-1.7,2.9l0,0l-0.6,0.3l0.3-1.7l-1.3-1.2l1.7-0.2l0.8-1.6L199.8,87.8z"/>
	</g>
</g>
<path class="st23" d="M192,86.3l0.8,1.6l1.7,0.3l-1.3,1.2l0.3,1.7l-1.6-0.8l-1.6,0.8l0.3-1.7l-1.3-1.2l1.7-0.3L192,86.3z"/>
<defs>
	
		<filter id="Adobe_OpacityMaskFilter_00000120526421472341408540000016225471814938846904_" filterUnits="userSpaceOnUse" x="140.7" y="99.3" width="43.2" height="57.8">
		<feColorMatrix type="matrix" values="1 0 0 0 0  0 1 0 0 0  0 0 1 0 0  0 0 0 1 0"/>
	</filter>
</defs>
<mask maskUnits="userSpaceOnUse" x="140.7" y="99.3" width="43.2" height="57.8" id="mask2_16483_28824_00000121961627284631213320000017183866588480536706_">
	<path style="fill:#9FA8DA;filter:url(#Adobe_OpacityMaskFilter_00000120526421472341408540000016225471814938846904_);" d="   M180.2,124.4c2.1-12.9-6.7-25.1-19.6-27.2c-12.9-2.1-25.1,6.7-27.2,19.6c-2.1,12.9,6.7,25.1,19.6,27.2   C165.9,146.1,178.1,137.3,180.2,124.4z"/>
</mask>
<g class="st25">
	<path class="st5" d="M165.2,136.7c0.4,0.1,1.1-0.1,1.1-0.1l12.4-8.1l1.4,1.5c0,0-13.8,13.5-15.2,13.8c-0.5,0.1-5.2-4.9-8.8-10.2   c1.8-1.6,3.8-2.8,5.8-4C162.6,131.2,164.9,136.6,165.2,136.7z"/>
	
		<linearGradient id="SVGID_00000130633480229827846060000011696216531069517998_" gradientUnits="userSpaceOnUse" x1="156.8107" y1="134.409" x2="157.2497" y2="108.761" gradientTransform="matrix(1 0 0 -1 0 252)">
		<stop offset="0" style="stop-color:#7986CB"/>
		<stop offset="1" style="stop-color:#795ECB"/>
	</linearGradient>
	<path style="fill:url(#SVGID_00000130633480229827846060000011696216531069517998_);" d="M151.9,121.9c2.3-3,6.7-1.9,8,3   c0,0,2.4,4.3,2.5,4.6c-2,1.2-4.8,3.1-6.5,4.7C152.8,129.5,150.4,124,151.9,121.9z"/>
	<path class="st5" d="M182.1,127c0.5-0.1,1.1-0.2,1.5,0.1c0.3,0.2,0.4,0.6,0.4,0.9c0,0.3-0.1,0.7-0.2,1c-0.2,0.6-4.7,1.7-5.5,0.6   c-0.3-0.3,0.1-0.6,0.2-1C178.9,127.4,180.8,127.2,182.1,127z"/>
	<path class="st5" d="M180.6,127.5c0.3,0.7,2.4-0.4,2.9-0.6c0.4,0.6-1,1.1-1.3,1.3c-0.4,0.3-0.4,0.9-0.8,1.2   c-0.4,0.3-0.8,0.2-1.2,0.1c-0.2,0-0.4-0.1-0.6-0.1"/>
	
		<linearGradient id="SVGID_00000174585257227627027330000005658156255262584224_" gradientUnits="userSpaceOnUse" x1="150.1762" y1="134.295" x2="150.6142" y2="108.648" gradientTransform="matrix(1 0 0 -1 0 252)">
		<stop offset="0" style="stop-color:#7986CB"/>
		<stop offset="1" style="stop-color:#795ECB"/>
	</linearGradient>
	<path style="fill:url(#SVGID_00000174585257227627027330000005658156255262584224_);" d="M153.2,117.7c-6.1,0-11.7,5-12.5,11.1   c0,0,1.7,24,1.7,24c0,0.6,0,1.2,0.1,1.8c0.4,1.7,2.9,2,4.3,2.2c3.3,0.4,7,0.3,10.1-1.1c1.3-0.6,1.2-1.1,1.4-2.6l1.7-22.6   C160.6,125.9,157.6,120.7,153.2,117.7z"/>
	<path class="st28" d="M147.7,105.2c0.3-0.6,0.8-1.1,1.4-1.4c0.5-0.2,1-0.2,1.5-0.6c0.5-0.5,0.6-1,1.3-1.2c0.6-0.2,1.2-0.3,1.8-0.3   c1-0.1,2.2-0.2,3.1-0.8c0.8-0.6,1.5-1.6,2.7-1.6c3.4,0.1,3.9,6.1,1.5,7.7l-1.5,1c-0.1,0-0.1,0-0.1,0c0.1-0.5,0-1.1,0-1.6   c0-0.1,0-0.1-0.1-0.1c-0.9-0.1-1.8-0.2-2.7-0.3c-0.6,0-1.3-0.1-1.9,0.1c-0.3,0.1-0.4,0.2-0.5,0.5c-0.2,0.5-0.1,1.1-0.4,1.6   c-0.3,0.5-0.6,1-0.8,1.6c-0.3,0.8-0.6,1.7-0.8,2.5c-0.3,0.9-0.5,1.9-0.8,2.8c-0.1,0-0.3,0-0.4-0.1c-0.8-0.7-0.5-2.6-0.9-3.6   c-0.5-1.1-1.6-1.8-2.1-2.9C147.2,107.6,147.2,106.3,147.7,105.2z"/>
	<path class="st5" d="M151,113.9l-1.1,4.6l6.9,7l-0.9-4.1l0.6-4.7L151,113.9z"/>
	<path class="st5" d="M160.1,115.9L160,105h-6.6l-0.2,2.7l-0.7,0.8l-0.5,3l-0.6,0l0-0.7c0-0.6-0.5-1.1-1.1-1.1c0,0,0,0,0,0   c-0.6,0-1,0.5-1,1.1v0.8c0,0.6,0.5,1.1,1.1,1.1c0.4,0,0.7,0.3,0.7,0.7v1c0,1.6,8.6,4.9,9.1,2.1   C160.1,116.3,160.1,116.1,160.1,115.9z"/>
	<path class="st5" d="M157.8,140.1c0.4,0.1,1.1-0.3,1.1-0.3l11.7-10.2l1.7,1.3c0,0-12.3,16.1-13.8,16.6c-0.5,0.2-6.1-4.3-10.7-9.3   c1.6-1.9,3.6-3.5,5.5-5C154.3,134.9,157.6,140.1,157.8,140.1z"/>
	
		<linearGradient id="SVGID_00000059308635393664169170000017593234412450813366_" gradientUnits="userSpaceOnUse" x1="147.5284" y1="134.25" x2="147.9664" y2="108.603" gradientTransform="matrix(1 0 0 -1 0 252)">
		<stop offset="0" style="stop-color:#7986CB"/>
		<stop offset="1" style="stop-color:#795ECB"/>
	</linearGradient>
	<path style="fill:url(#SVGID_00000059308635393664169170000017593234412450813366_);" d="M141.8,126.8c1.9-3.5,6.7-3,8.8,1.9   c0,0,3.2,4.1,3.3,4.4c-1.9,1.5-4.5,4-6.1,5.9C143.9,134.6,140.5,129.2,141.8,126.8z"/>
	<path class="st5" d="M174,127.5c0.5-0.2,1.1-0.4,1.5-0.1c0.3,0.2,0.5,0.5,0.5,0.9c0,0.4,0,0.7-0.1,1.1c-0.1,0.6-4.6,2.5-5.6,1.5   c-0.3-0.3,0-0.6,0.1-1.1C170.7,128.4,172.7,128,174,127.5z"/>
	<path class="st5" d="M174.1,127.8c0.3-0.7,4.7-1,4.5-0.6c0,0.4-1.9,0.5-2.2,0.6C175.7,128,174.9,128.7,174.1,127.8z"/>
	<path class="st5" d="M174.1,127.9c0.6-0.6,2.7,0.1,3.2,0.7c0.3,0.3,0.1,1.2-0.2,1.5c-0.4-0.2-0.1-0.6-0.2-0.9   c-0.1-0.3-0.4-0.2-0.7-0.3C175.5,128.7,174.4,129.1,174.1,127.9z"/>
	<path class="st5" d="M173.2,129c0.4-0.7,2.7-0.5,3.3-0.1c0.4,0.3,0.4,1.1,0.1,1.5c-0.4-0.1-0.2-0.6-0.4-0.8   c-0.2-0.2-0.4-0.1-0.7-0.1C174.7,129.5,173.8,130.1,173.2,129z"/>
	<path class="st5" d="M173.5,129.6c0.3-0.5,2-0.3,2.4,0.1c0.2,0.2,0.3,0.9,0,1.1c-0.3-0.1-0.1-0.4-0.3-0.6c-0.1-0.2-0.3-0.1-0.5-0.1   C174.6,130,173.9,130.4,173.5,129.6z"/>
</g>
<path class="st30" d="M234,106.4h-46.7v4H234V106.4z"/>
<path class="st0" d="M272.1,117.6h-84.7v2h84.7V117.6z"/>
<path class="st0" d="M272.1,122.7h-84.7v2h84.7V122.7z"/>
<path class="st0" d="M272.1,127.7h-84.7v2h84.7V127.7z"/>
<path class="st0" d="M256.2,132.8h-68.9v2h68.9V132.8z"/>
<path class="st31" d="M234,161.5h-46.7v4H234V161.5z"/>
<path class="st0" d="M272.1,172.8h-84.7v2h84.7V172.8z"/>
<path class="st0" d="M272.1,177.8h-84.7v2h84.7V177.8z"/>
<path class="st0" d="M272.1,182.9h-84.7v2h84.7V182.9z"/>
<path class="st0" d="M256.2,188h-68.9v2h68.9V188z"/>
<linearGradient id="SVGID_00000054240085307753834530000005930540227471987878_" gradientUnits="userSpaceOnUse" x1="117.932" y1="162.2841" x2="137.5306" y2="162.2841" gradientTransform="matrix(1 0 0 -1 0 252)">
	<stop offset="0" style="stop-color:#AB47BC"/>
	<stop offset="1" style="stop-color:#AB90BC"/>
</linearGradient>
<path style="fill:url(#SVGID_00000054240085307753834530000005930540227471987878_);" d="M117.9,78.7c3,2.4,5.9,4.9,8.9,7.3  c1.7,1.4,3.4,2.8,5.2,4.3c1.2,1,2.5,2,3.5,3.2c1.1,1.3,1.6,2.8,2,4.4c0.3,1-0.2,2-1.1,2.4l-0.4,0.2c-2.3,1.1-5.2-0.5-7-2.3l-4.9-5.2  L117.9,78.7z"/>
<path class="st33" d="M114.3,51.6c-3.4,0.4-6.7,2.1-8.4,4.8c-1.8,2.8-2.4,6.2-2.6,9.5c-0.1,2.8,0.1,5.6,0.5,8.4  c7.5,1.7,15.5,2,23.2,1c0.1-5.1-0.5-10.4-1.6-15.4c-0.5-2.2-1.4-4.6-3.2-6.2C120.2,51.8,117.2,51.2,114.3,51.6z"/>
<linearGradient id="SVGID_00000054973269813719384050000004897734310353271706_" gradientUnits="userSpaceOnUse" x1="100.9127" y1="58.3669" x2="107.2807" y2="97.1069" gradientTransform="matrix(1 0 0 -1 0 252)">
	<stop offset="0" style="stop-color:#263238"/>
	<stop offset="1" style="stop-color:#000001"/>
</linearGradient>
<path style="fill:url(#SVGID_00000054973269813719384050000004897734310353271706_);" d="M124.2,122.9c-9.7,3.5-18-0.1-22.1,5  c-2.7,3.3-1.4,10.5-1.7,12.5c-1.6,10.4,1.4,17,3.7,30.4c-5.4,2.9-9,9.3-9.8,14c-0.4,2.1-1.2,4.9-2.2,7.9c-1.6,4.7-3.6,9.7-4.9,12.7  c1.3,0.7,2.2,1.4,4,1.4c1.7-3.9,4-7.9,6.5-11.8c4-6.4,8.5-12.8,11.2-19.3c5.2-5.4,10.9-24.8,12.3-32.2  C122.1,137.9,123.1,129.9,124.2,122.9z"/>
<linearGradient id="SVGID_00000150806719692975334670000018285579166881458848_" gradientUnits="userSpaceOnUse" x1="90.8459" y1="44.6912" x2="90.8141" y2="44.6162" gradientTransform="matrix(1 0 0 -1 0 252)">
	<stop offset="0" style="stop-color:#FFCDD2"/>
	<stop offset="1" style="stop-color:#E57373"/>
</linearGradient>
<path style="fill:url(#SVGID_00000150806719692975334670000018285579166881458848_);" d="M90.8,207.3  C90.8,207.3,90.8,207.4,90.8,207.3C90.8,207.4,90.8,207.3,90.8,207.3z"/>
<linearGradient id="SVGID_00000042000014935111923600000016595868638213566601_" gradientUnits="userSpaceOnUse" x1="82.8358" y1="37.7954" x2="84.2205" y2="41.1944" gradientTransform="matrix(1 0 0 -1 0 252)">
	<stop offset="0" style="stop-color:#AB47BC"/>
	<stop offset="1" style="stop-color:#AB90BC"/>
</linearGradient>
<path style="fill:url(#SVGID_00000042000014935111923600000016595868638213566601_);" d="M84,209l-3,9.3l0.5,0.2l3.4-6.9L84,209z"/>
<path class="st5" d="M90.4,214.1c0.1-2.6-0.3-4.5,0.4-6.7c-0.1,0.1-0.4,0.3-2-0.3c-2-0.8-1.9-1.4-1.9-1.4c-0.3,0.5-0.6,0.7-1,0.9  c0.9,4.4-1.4,8.5,0.1,13.1c0.6,2,2,1.5,3.7,1.3c0-0.2,0-0.4-0.1-0.9C89.2,217.8,90.4,216.3,90.4,214.1z"/>
<linearGradient id="SVGID_00000151523169414348432160000012644624746962832296_" gradientUnits="userSpaceOnUse" x1="92.205" y1="47.001" x2="84.9705" y2="29.832" gradientTransform="matrix(1 0 0 -1 0 252)">
	<stop offset="0" style="stop-color:#AB47BC"/>
	<stop offset="1" style="stop-color:#AB90BC"/>
</linearGradient>
<path style="fill:url(#SVGID_00000151523169414348432160000012644624746962832296_);" d="M86.1,219.6c-1.5-4.6,0.8-8.7-0.1-13.1  c-0.7,0.3-1.5,0.1-2,1.2c-0.7,1.5,0.2,2.5,0.8,3.8c1.2,2.3,0.2,4.6,0,6.9c-0.1,1.7,0.3,2.2,1.5,3.3c1.1,1,1.8,1.1,3.5,1.7  c1.5,0.6,2.4-0.4,1-1.5c-0.8-0.7-1-0.8-1-1.1C88,221.2,86.6,221.6,86.1,219.6z"/>
<linearGradient id="SVGID_00000039116374814290162960000010269431336172521658_" gradientUnits="userSpaceOnUse" x1="110.9662" y1="109.236" x2="110.9662" y2="164.707" gradientTransform="matrix(1 0 0 -1 0 252)">
	<stop offset="0" style="stop-color:#263238"/>
	<stop offset="1" style="stop-color:#000001"/>
</linearGradient>
<path style="fill:url(#SVGID_00000039116374814290162960000010269431336172521658_);" d="M116.1,120.9c-4.6,0.1-9.2-1.5-13.5-3.4  c-0.2,0.9-8.5,8-3.4,22.5c3.2,13,7.5,25.2,8.9,35.6c-3.8,4.7-4.6,12.1-3.6,16.7c0.5,2,0.8,5,1,8.1c0.3,4.9,0.4,10.3,0.4,13.6  c1.5,0.2,2.6,0.4,4.2-0.2c0-4.3,0.7-8.8,1.4-13.4c1.2-7.5,2.8-15.1,2.8-22.1c2.7-7,3.1-38.7,3.6-44c0.6-5.8,2.6-2.1,5-7.3  c1.2-2.5,1.4-6.9,1.4-8C122,120.4,119.1,120.8,116.1,120.9z"/>
<linearGradient id="SVGID_00000009590992771956688150000007236936040158694299_" gradientUnits="userSpaceOnUse" x1="110.1719" y1="37.486" x2="110.1719" y2="37.404" gradientTransform="matrix(1 0 0 -1 0 252)">
	<stop offset="0" style="stop-color:#FFCDD2"/>
	<stop offset="1" style="stop-color:#E57373"/>
</linearGradient>
<path style="fill:url(#SVGID_00000009590992771956688150000007236936040158694299_);" d="M110.2,214.5  C110.2,214.6,110.2,214.6,110.2,214.5C110.2,214.6,110.2,214.5,110.2,214.5z"/>
<linearGradient id="SVGID_00000106114330183812785630000013657190215945619594_" gradientUnits="userSpaceOnUse" x1="105.4727" y1="28.02" x2="105.4287" y2="31.691" gradientTransform="matrix(1 0 0 -1 0 252)">
	<stop offset="0" style="stop-color:#AB47BC"/>
	<stop offset="1" style="stop-color:#AB90BC"/>
</linearGradient>
<path style="fill:url(#SVGID_00000106114330183812785630000013657190215945619594_);" d="M104.5,218.7l0.8,9.8h0.5l0.4-7.7  L104.5,218.7z"/>
<path class="st5" d="M112.4,220.9c-1-2.4-2.1-4.1-2.2-6.3c0,0.1-0.2,0.4-1.9,0.5c-2.2,0-2.3-0.5-2.3-0.5c-0.1,0.6-0.3,0.9-0.6,1.2  c2.5,3.7,2.1,8.4,5.2,12c1.3,1.6,2.4,0.7,3.9-0.2c-0.1-0.2-0.2-0.4-0.5-0.8C112.8,224.8,113.2,223,112.4,220.9z"/>
<linearGradient id="SVGID_00000122713070697123388780000018018664671807468948_" gradientUnits="userSpaceOnUse" x1="110.5409" y1="40.142" x2="110.5409" y2="21.511" gradientTransform="matrix(1 0 0 -1 0 252)">
	<stop offset="0" style="stop-color:#AB47BC"/>
	<stop offset="1" style="stop-color:#AB90BC"/>
</linearGradient>
<path style="fill:url(#SVGID_00000122713070697123388780000018018664671807468948_);" d="M110.6,227.7c-3.1-3.7-2.7-8.3-5.2-12  c-0.6,0.5-1.3,0.7-1.3,1.9c0,1.6,1.2,2.2,2.2,3.2c2,1.7,2,4.2,2.7,6.4c0.5,1.6,1.2,1.9,2.7,2.5c1.4,0.5,2.1,0.3,3.9,0.2  c1.6,0,2.1-1.3,0.3-1.8c-1-0.3-1.2-0.4-1.4-0.6C113,228.4,111.9,229.4,110.6,227.7z"/>
<linearGradient id="SVGID_00000116195378566180795980000007843388023282957954_" gradientUnits="userSpaceOnUse" x1="103.2258" y1="129.8351" x2="126.9968" y2="177.967" gradientTransform="matrix(1 0 0 -1 0 252)">
	<stop offset="0" style="stop-color:#AB47BC"/>
	<stop offset="1" style="stop-color:#AB90BC"/>
</linearGradient>
<path style="fill:url(#SVGID_00000116195378566180795980000007843388023282957954_);" d="M108.3,105.2c0.1,1.4-3.9,8.5-5.7,12.4  c2,2.3,7,3.9,11,4.1c3.3,0.1,7.5,0.2,10.8-1.1l-1.6-20.3c0,0,7.3-2.2,3.9-7.8c-3.2-5.2-8.3-15.6-11.8-15.6c-0.9-0.9-2.2-1.4-3.5-1.3  c-4,0.3-5.2,0.4-7.4,3.7c-1.4,2.1-2.4,7.3,0.6,15.3L108.3,105.2z"/>
<path class="st9" d="M117.4,72.8l-6.5-4.4l-0.4,3l6.3,4.9L117.4,72.8z"/>
<path class="st5" d="M117.7,82.3l-1.2-3.8l0.3-2.2l-6.3-4.9l-0.6,4.4l5.4,7.6C116.2,84.6,118.1,83.7,117.7,82.3z"/>
<path class="st5" d="M120.1,57.5c-0.8-0.1-1.7,1.9-2,2.4c-1,1.6-2,3.2-3.2,4.6c-0.9,1.1-2.3,2.5-3.9,1.8c-0.1,0-0.1-0.1-0.1-0.2  l-0.1,0l-0.2-1c-0.2-0.8-0.9-1.4-1.8-1.2l0,0c-0.8,0.1-1.4,0.9-1.2,1.7l0.2,1.2c0.1,0.9,0.9,1.4,1.8,1.3c0.5-0.1,1,0.3,1.1,0.8  c0,0,0.1,0.6,0.1,0.6c0.3,2.2,11.1,5.4,11.6,2.9c0-0.2,0.5-6.3-0.1-11c-0.2-1.2-0.6-2.6-1-3.8C120.8,57.6,120.4,57.5,120.1,57.5z"/>
<path class="st5" d="M88.4,100.3l12.6,12.5l2.5-1.1l-8.7-14.3L88.4,100.3z"/>
<path class="st5" d="M107.5,113.1c0.6,0.3,1.3,0.7,1.5,1.4c0.1,0.4-0.1,0.9-0.4,1.3c-0.3,0.4-0.7,0.6-1,0.9  c-0.7,0.5-6.5-2.1-6.5-3.9c0-0.6,0.6-0.6,1.1-0.9C103.7,110.9,105.8,112.4,107.5,113.1z"/>
<path class="st5" d="M108.6,113.9c0.9,0.4,1,3.4,0.5,4.3c-0.3,0.5-1.4,0.7-1.9,0.4c0.1-0.5,0.7-0.3,1-0.6c0.3-0.2,0.1-0.6,0.1-1  C108.2,115.9,107.3,114.8,108.6,113.9z"/>
<rect x="105.2" y="113.8" class="st16" width="3" height="5.2"/>
<path class="st5" d="M106.2,113.8c0.9,0.4,1,3.4,0.5,4.3c-0.3,0.5-1.4,0.7-1.9,0.4c0.1-0.5,0.7-0.3,1-0.6c0.3-0.2,0.1-0.6,0.1-1  C105.8,115.9,104.9,114.7,106.2,113.8z"/>
<path class="st5" d="M105.4,114.4c0.7,0.3,0.8,2.5,0.4,3.1c-0.2,0.4-1,0.5-1.4,0.3c0.1-0.4,0.5-0.2,0.8-0.5c0.2-0.2,0.1-0.4,0-0.7  C105.1,115.9,104.5,115.1,105.4,114.4z"/>
<path class="st5" d="M131.5,97.2l-4.2-15.5l1.9-1.6l7.4,15.3c0.7,1.5,0,3.3-1.6,3.8C133.4,99.7,131.9,98.8,131.5,97.2z"/>
<path class="st5" d="M126.8,76.2c-0.4-0.5-1-1.1-1.7-1.1c-0.5,0-0.9,0.3-1.2,0.6c-0.3,0.4-0.5,0.8-0.6,1.2c-0.3,0.8,3.4,5.8,5.3,5.4  c0.6-0.1,0.4-0.7,0.6-1.2C129.8,79.5,128,77.7,126.8,76.2z"/>
<rect x="121.6" y="75" class="st16" width="5.2" height="2.2"/>
<path class="st5" d="M126.6,77.1c-0.4-1-3.3-1.2-4.2-0.8c-0.5,0.3-0.8,1.4-0.5,1.9c0.5-0.1,0.4-0.7,0.7-1c0.3-0.3,0.6-0.1,1,0  C124.6,77.4,125.7,78.3,126.6,77.1z"/>
<path class="st5" d="M126,77.8c-0.3-0.7-2.5-0.9-3.1-0.6c-0.4,0.2-0.6,1-0.4,1.4c0.4-0.1,0.3-0.5,0.5-0.7c0.2-0.2,0.4-0.1,0.7,0  C124.5,78.1,125.3,78.8,126,77.8z"/>
<path class="st5" d="M126.2,75.8c-0.2-0.5-0.7-0.7-1-1.1c-0.4-0.4-0.7-0.7-1.1-1.1c-0.5-0.6-1.1-1.7-1.9-1.9c0,0-0.1,0-0.1,0.1  c-0.1,0.9,0.9,1.9,1.4,2.5c0.6,0.7,1.5,1.9,2.4,2.1C126.2,76.4,126.3,76.1,126.2,75.8z"/>
<linearGradient id="SVGID_00000154389714343991092830000001825369715038456985_" gradientUnits="userSpaceOnUse" x1="73.5153" y1="158.2134" x2="126.4892" y2="166.8956" gradientTransform="matrix(1 0 0 -1 0 252)">
	<stop offset="0" style="stop-color:#AB47BC"/>
	<stop offset="1" style="stop-color:#AB90BC"/>
</linearGradient>
<path style="fill:url(#SVGID_00000154389714343991092830000001825369715038456985_);" d="M105.1,77.9L84.9,95.5l5,6.8l5.7-3.7  L94.9,97l13.3-12.8c1.9-1.2,2.4-3.7,1.1-5.6C108,77,106.9,76.7,105.1,77.9z"/>
</svg>